<svg id="svg" version="1.1" xmlns="http://www.w3.org/2000/svg" xmlns:xlink="http://www.w3.org/1999/xlink" width="15" height="15" viewBox="0, 0, 300,300"><g id="svgg"><path id="path0" d="M53.600 154.773 C 53.600 217.006,53.620 218.753,54.351 218.984 C 54.764 219.116,55.593 219.645,56.194 220.161 C 56.794 220.677,57.996 221.312,58.864 221.572 C 59.732 221.832,60.539 222.296,60.657 222.603 C 60.774 222.910,61.485 223.364,62.235 223.612 C 62.986 223.859,63.600 224.216,63.600 224.404 C 63.600 224.592,64.005 224.875,64.500 225.031 C 64.995 225.188,66.120 225.783,67.000 226.354 C 67.880 226.924,69.050 227.620,69.600 227.900 C 70.506 228.363,72.359 229.396,78.174 232.684 C 79.260 233.298,80.837 234.172,81.680 234.627 C 82.523 235.082,83.089 235.577,82.939 235.727 C 82.789 235.877,82.877 236.023,83.133 236.050 C 84.066 236.150,84.226 236.217,85.800 237.171 C 88.485 238.799,89.958 239.508,90.184 239.282 C 90.303 239.164,90.400 220.317,90.400 197.400 C 90.400 174.483,90.505 155.629,90.633 155.501 C 90.841 155.292,93.042 156.553,94.276 157.588 C 94.538 157.808,95.618 158.395,96.676 158.894 C 97.734 159.392,98.690 159.911,98.800 160.048 C 98.910 160.184,99.928 160.763,101.063 161.335 C 102.197 161.907,103.190 162.571,103.270 162.810 C 103.349 163.048,103.730 163.290,104.115 163.346 C 104.501 163.403,105.487 163.855,106.308 164.350 C 107.129 164.846,109.060 165.988,110.600 166.889 C 112.140 167.790,113.532 168.724,113.694 168.964 C 113.856 169.204,113.991 169.270,113.994 169.112 C 113.997 168.954,114.655 169.269,115.456 169.812 C 116.257 170.355,117.064 170.800,117.251 170.800 C 117.438 170.800,117.908 171.071,118.295 171.403 C 118.683 171.735,119.134 172.007,119.298 172.007 C 119.462 172.007,120.578 172.635,121.779 173.404 C 122.979 174.172,124.137 174.800,124.352 174.800 C 124.567 174.800,124.981 175.033,125.271 175.317 C 125.782 175.817,128.521 177.448,131.000 178.730 C 131.660 179.071,132.897 179.853,133.750 180.468 C 134.602 181.082,135.430 181.505,135.589 181.407 C 135.749 181.308,136.225 181.550,136.649 181.945 C 137.072 182.339,138.179 182.998,139.109 183.408 C 140.039 183.818,140.800 184.297,140.800 184.472 C 140.800 184.750,143.116 185.894,143.907 186.007 C 144.068 186.030,144.560 186.386,145.000 186.798 C 145.440 187.210,146.285 187.730,146.877 187.955 C 147.469 188.179,149.393 189.255,151.153 190.347 C 152.912 191.438,154.723 192.448,155.176 192.592 C 155.629 192.736,156.000 193.052,156.000 193.294 C 156.000 193.535,156.114 193.619,156.254 193.480 C 156.393 193.340,156.957 193.580,157.508 194.013 C 158.058 194.446,158.754 194.800,159.054 194.800 C 159.354 194.800,159.600 194.944,159.600 195.120 C 159.600 195.296,160.410 195.834,161.400 196.315 L 163.200 197.190 163.200 175.670 L 163.200 154.150 162.016 153.275 C 161.365 152.794,160.718 152.400,160.578 152.400 C 160.438 152.400,159.801 152.028,159.162 151.573 C 158.523 151.118,158.000 150.855,158.000 150.988 C 158.000 151.122,157.606 150.864,157.125 150.416 C 156.643 149.967,156.026 149.600,155.753 149.600 C 155.480 149.600,154.980 149.322,154.640 148.983 C 154.301 148.644,153.028 147.926,151.812 147.388 C 150.595 146.850,149.600 146.264,149.600 146.085 C 149.600 145.907,148.925 145.523,148.100 145.233 C 147.275 144.942,146.240 144.395,145.800 144.017 C 145.360 143.639,144.409 143.096,143.687 142.811 C 142.965 142.526,142.473 142.194,142.594 142.073 C 142.795 141.872,140.621 140.718,139.885 140.635 C 139.712 140.616,139.442 140.408,139.285 140.172 C 139.128 139.937,138.100 139.315,137.000 138.790 C 135.058 137.863,132.724 136.453,131.695 135.585 C 131.417 135.351,131.012 135.269,130.795 135.403 C 130.578 135.537,130.400 135.485,130.400 135.287 C 130.400 135.088,129.725 134.583,128.900 134.163 C 128.075 133.743,127.310 133.310,127.200 133.200 C 126.903 132.903,125.487 132.034,124.800 131.727 C 124.470 131.579,124.110 131.355,124.000 131.229 C 123.890 131.103,122.765 130.491,121.500 129.870 C 120.235 129.248,119.200 128.573,119.200 128.370 C 119.200 128.166,119.065 128.031,118.900 128.070 C 118.428 128.180,116.400 127.108,116.400 126.748 C 116.400 126.571,116.130 126.529,115.800 126.655 C 115.470 126.782,115.200 126.720,115.200 126.517 C 115.200 126.314,114.570 125.848,113.800 125.481 C 113.030 125.113,112.400 124.619,112.400 124.383 C 112.400 124.146,112.220 124.064,112.000 124.200 C 111.780 124.336,111.600 124.285,111.600 124.088 C 111.600 123.890,110.880 123.490,110.000 123.200 C 109.120 122.910,108.400 122.525,108.400 122.346 C 108.400 122.167,107.549 121.632,106.509 121.159 C 105.469 120.685,103.444 119.538,102.009 118.611 C 98.678 116.458,93.894 113.747,92.826 113.408 C 92.372 113.264,92.000 112.992,92.000 112.804 C 92.000 112.616,91.392 112.261,90.648 112.016 C 89.905 111.771,88.977 111.217,88.586 110.785 C 88.196 110.353,87.589 109.995,87.238 109.989 C 86.887 109.983,85.893 109.443,85.029 108.789 C 84.165 108.135,83.282 107.600,83.067 107.600 C 82.851 107.600,82.119 107.191,81.438 106.692 C 80.757 106.192,79.660 105.518,79.000 105.193 C 78.340 104.867,77.710 104.501,77.600 104.378 C 77.490 104.255,76.829 103.924,76.131 103.642 C 74.905 103.146,71.078 100.845,70.143 100.041 C 69.891 99.825,69.576 99.757,69.443 99.891 C 69.309 100.024,69.200 99.943,69.200 99.710 C 69.200 99.477,68.491 99.003,67.624 98.656 C 66.758 98.310,64.823 97.251,63.324 96.303 C 61.826 95.355,60.150 94.358,59.600 94.086 C 58.160 93.376,55.035 91.523,54.800 91.240 C 53.619 89.821,53.600 90.826,53.600 154.773 M163.200 260.800 C 163.200 279.378,163.274 282.000,163.800 282.000 C 164.130 282.000,164.400 282.139,164.400 282.308 C 164.400 282.478,165.255 283.063,166.300 283.608 C 167.345 284.154,168.296 284.728,168.414 284.884 C 168.532 285.041,169.280 285.441,170.077 285.775 C 170.875 286.108,171.588 286.539,171.663 286.734 C 171.739 286.928,172.610 287.476,173.600 287.950 C 175.379 288.803,178.205 290.430,179.020 291.070 C 179.601 291.526,180.685 292.134,184.159 293.953 C 185.803 294.814,187.040 295.627,186.907 295.759 C 186.684 295.982,187.407 296.157,188.100 296.047 C 188.265 296.021,188.400 296.160,188.400 296.357 C 188.400 296.553,188.850 296.826,189.400 296.964 C 189.950 297.102,190.400 297.392,190.400 297.608 C 190.400 297.823,190.575 298.000,190.788 298.000 C 191.002 298.000,192.520 298.794,194.161 299.764 C 195.803 300.735,197.518 301.647,197.973 301.791 C 198.428 301.936,198.800 302.194,198.800 302.366 C 198.800 302.538,199.520 303.003,200.400 303.400 C 201.280 303.797,202.000 304.304,202.000 304.527 C 202.000 304.751,202.114 304.819,202.254 304.680 C 202.393 304.540,202.957 304.780,203.508 305.213 C 204.058 305.646,204.694 306.000,204.922 306.000 C 205.150 306.000,205.621 306.256,205.969 306.568 C 206.316 306.881,207.500 307.619,208.600 308.209 C 209.700 308.799,211.500 309.797,212.600 310.427 C 213.700 311.056,215.660 312.163,216.957 312.886 C 218.253 313.609,219.603 314.382,219.957 314.605 C 220.310 314.828,221.500 315.539,222.600 316.186 C 223.700 316.833,224.690 317.463,224.800 317.586 C 224.910 317.710,225.900 318.257,227.000 318.803 C 228.100 319.349,230.350 320.615,232.000 321.617 C 233.650 322.619,235.315 323.560,235.700 323.707 C 236.361 323.960,236.400 322.773,236.400 302.187 C 236.400 283.087,236.326 280.400,235.800 280.400 C 235.470 280.400,235.200 280.190,235.200 279.933 C 235.200 279.677,235.085 279.581,234.945 279.722 C 234.805 279.862,234.192 279.622,233.583 279.188 C 232.975 278.755,232.324 278.397,232.138 278.393 C 231.779 278.385,228.603 276.361,227.610 275.507 C 227.285 275.228,226.968 275.048,226.906 275.106 C 226.797 275.207,225.997 274.790,224.200 273.695 C 223.760 273.427,222.500 272.732,221.400 272.151 C 220.300 271.570,219.310 270.984,219.200 270.848 C 219.090 270.711,217.965 270.075,216.700 269.433 C 215.435 268.792,214.400 268.117,214.400 267.933 C 214.400 267.750,214.062 267.600,213.649 267.600 C 213.236 267.600,212.651 267.301,212.349 266.935 C 212.047 266.569,211.080 265.926,210.200 265.505 C 209.320 265.084,208.240 264.523,207.800 264.258 C 205.789 263.046,204.175 262.242,203.900 262.318 C 203.735 262.363,203.600 262.249,203.600 262.064 C 203.600 261.659,201.712 260.734,200.598 260.593 C 200.157 260.538,198.177 259.552,196.198 258.402 C 194.219 257.253,191.472 255.657,190.092 254.856 C 188.713 254.055,187.093 253.125,186.492 252.788 C 184.977 251.939,182.127 250.285,177.200 247.395 C 172.629 244.713,170.135 243.286,166.908 241.504 C 165.757 240.868,164.711 240.180,164.584 239.974 C 163.297 237.891,163.200 239.349,163.200 260.800 " stroke="none" fill="#000" fill-rule="evenodd"></path><path id="path1" d="M272.000 91.081 C 272.000 91.268,271.192 91.776,270.204 92.210 C 269.216 92.645,268.406 93.115,268.404 93.256 C 268.402 93.397,267.635 93.900,266.700 94.374 C 265.765 94.848,264.010 95.842,262.800 96.583 C 261.590 97.324,259.790 98.338,258.800 98.837 C 257.810 99.337,256.906 99.881,256.792 100.047 C 256.677 100.214,256.137 100.540,255.592 100.773 C 255.046 101.005,253.430 101.912,252.000 102.787 C 250.570 103.662,248.590 104.788,247.600 105.289 C 246.610 105.790,245.741 106.333,245.668 106.495 C 245.596 106.658,244.736 107.145,243.757 107.578 C 242.779 108.011,241.700 108.643,241.361 108.982 C 241.021 109.322,240.520 109.600,240.247 109.600 C 239.974 109.600,239.402 109.918,238.975 110.307 C 238.549 110.696,237.255 111.459,236.100 112.002 C 234.945 112.545,234.000 113.126,234.000 113.294 C 234.000 113.462,233.811 113.600,233.581 113.600 C 233.350 113.600,232.225 114.194,231.081 114.920 C 229.936 115.645,228.415 116.477,227.700 116.768 C 226.985 117.059,226.400 117.433,226.400 117.600 C 226.400 117.767,225.815 118.137,225.100 118.424 C 224.385 118.710,223.080 119.427,222.200 120.017 C 221.320 120.607,220.195 121.217,219.700 121.372 C 219.205 121.527,218.800 121.804,218.800 121.987 C 218.800 122.171,217.991 122.654,217.001 123.060 C 216.012 123.467,215.202 123.946,215.201 124.124 C 215.201 124.302,215.020 124.336,214.800 124.200 C 214.580 124.064,214.400 124.127,214.400 124.341 C 214.400 124.554,213.545 125.137,212.500 125.637 C 211.455 126.136,210.504 126.685,210.386 126.857 C 210.268 127.029,209.503 127.448,208.686 127.790 C 207.869 128.131,207.199 128.543,207.199 128.705 C 207.198 128.867,206.379 129.336,205.380 129.747 C 204.380 130.158,203.346 130.699,203.081 130.948 C 202.817 131.198,201.883 131.761,201.006 132.201 C 200.129 132.640,199.161 133.236,198.853 133.524 C 198.546 133.813,197.598 134.327,196.747 134.668 C 195.896 135.008,195.200 135.428,195.200 135.600 C 195.200 135.772,194.480 136.201,193.600 136.553 C 192.720 136.905,192.000 137.351,192.000 137.542 C 192.000 137.734,191.187 138.202,190.193 138.582 C 189.199 138.961,188.151 139.507,187.864 139.794 C 187.577 140.081,186.545 140.705,185.571 141.180 C 184.597 141.656,182.810 142.662,181.600 143.417 C 180.390 144.171,178.635 145.159,177.700 145.613 C 176.765 146.066,176.000 146.573,176.000 146.738 C 176.000 146.904,175.394 147.258,174.654 147.526 C 173.913 147.794,172.896 148.370,172.393 148.806 C 171.889 149.243,171.269 149.600,171.014 149.600 C 170.759 149.600,170.202 149.918,169.775 150.307 C 169.349 150.696,168.055 151.459,166.900 152.002 C 165.745 152.545,164.800 153.126,164.800 153.294 C 164.800 153.462,164.530 153.600,164.200 153.600 C 163.674 153.600,163.600 156.289,163.600 175.400 C 163.600 187.390,163.735 197.197,163.900 197.193 C 164.065 197.190,164.920 196.745,165.800 196.205 C 166.680 195.665,168.165 194.864,169.100 194.426 C 170.035 193.987,170.800 193.478,170.800 193.295 C 170.800 193.111,171.428 192.734,172.196 192.456 C 172.963 192.178,173.818 191.728,174.096 191.455 C 174.373 191.182,175.500 190.530,176.600 190.007 C 177.700 189.483,178.690 188.933,178.800 188.783 C 178.910 188.634,179.630 188.191,180.400 187.800 C 181.170 187.409,181.890 186.968,182.000 186.822 C 182.110 186.675,183.010 186.152,184.000 185.659 C 186.037 184.645,188.801 183.033,189.400 182.512 C 189.620 182.320,190.700 181.734,191.800 181.209 C 192.900 180.684,193.890 180.140,194.000 180.000 C 194.223 179.715,198.290 177.430,200.300 176.460 C 201.015 176.116,201.600 175.696,201.600 175.528 C 201.600 175.360,202.500 174.835,203.600 174.362 C 204.700 173.889,205.600 173.371,205.600 173.211 C 205.600 173.052,206.275 172.623,207.100 172.258 C 207.925 171.893,209.950 170.787,211.600 169.800 C 213.250 168.813,215.046 167.814,215.592 167.578 C 216.137 167.343,216.677 167.005,216.792 166.827 C 216.976 166.542,218.035 165.937,222.483 163.576 C 223.130 163.233,223.781 162.778,223.929 162.565 C 224.078 162.352,224.991 161.829,225.959 161.402 C 226.926 160.975,227.918 160.440,228.164 160.213 C 228.579 159.829,229.468 159.324,234.500 156.611 L 236.400 155.587 236.400 175.979 L 236.400 196.372 235.500 196.846 C 235.005 197.106,234.510 197.447,234.400 197.603 C 234.290 197.759,233.390 198.275,232.400 198.750 C 230.509 199.657,227.679 201.299,227.000 201.884 C 226.780 202.074,225.790 202.635,224.800 203.132 C 223.810 203.629,222.010 204.644,220.800 205.387 C 219.590 206.131,217.790 207.157,216.800 207.669 C 215.810 208.181,214.910 208.694,214.800 208.809 C 214.432 209.195,208.699 212.400,208.376 212.400 C 208.200 212.400,207.808 212.649,207.503 212.954 C 207.199 213.258,206.151 213.912,205.175 214.407 C 204.199 214.902,203.310 215.436,203.200 215.594 C 203.090 215.751,201.219 216.852,199.043 218.040 C 196.867 219.228,194.257 220.688,193.243 221.283 C 192.229 221.879,190.770 222.682,190.000 223.067 C 189.230 223.452,188.240 224.066,187.800 224.432 C 187.360 224.797,186.529 225.345,185.954 225.648 C 182.192 227.632,180.575 228.536,180.400 228.753 C 180.290 228.889,179.390 229.419,178.400 229.931 C 177.410 230.443,175.610 231.469,174.400 232.213 C 173.190 232.956,171.390 233.970,170.400 234.466 C 169.410 234.962,168.390 235.571,168.134 235.821 C 167.878 236.071,167.113 236.505,166.434 236.786 C 165.755 237.067,165.200 237.436,165.200 237.605 C 165.200 237.775,164.743 238.028,164.184 238.168 C 162.921 238.485,163.145 238.873,165.304 240.101 C 166.237 240.632,168.800 242.117,171.000 243.401 C 173.200 244.685,176.620 246.667,178.600 247.806 C 184.070 250.952,189.249 253.944,195.087 257.332 C 199.986 260.174,201.598 260.859,201.601 260.100 C 201.602 259.935,202.421 259.464,203.420 259.053 C 204.420 258.642,205.454 258.101,205.719 257.852 C 205.983 257.602,206.920 257.039,207.800 256.599 C 208.680 256.160,209.490 255.683,209.600 255.541 C 209.797 255.286,212.362 253.826,215.300 252.297 C 216.125 251.868,216.800 251.388,216.800 251.232 C 216.800 251.075,217.790 250.537,219.000 250.035 C 220.210 249.534,221.200 248.973,221.200 248.789 C 221.200 248.605,221.603 248.326,222.095 248.170 C 222.587 248.014,223.660 247.442,224.480 246.900 C 226.253 245.727,227.993 244.740,230.283 243.609 C 231.209 243.151,232.065 242.618,232.186 242.423 C 232.306 242.229,233.258 241.658,234.302 241.155 C 235.346 240.653,236.438 240.007,236.729 239.721 C 237.019 239.434,237.433 239.200,237.648 239.200 C 237.863 239.200,239.023 238.570,240.227 237.800 C 241.431 237.030,242.579 236.400,242.779 236.400 C 242.979 236.400,243.381 236.166,243.671 235.879 C 243.962 235.593,245.043 234.952,246.074 234.456 C 247.105 233.960,248.005 233.429,248.074 233.277 C 248.208 232.983,250.053 231.928,253.500 230.175 C 254.655 229.587,255.600 228.984,255.600 228.834 C 255.600 228.683,256.228 228.334,256.996 228.056 C 257.763 227.778,258.618 227.328,258.896 227.055 C 259.173 226.782,260.255 226.147,261.300 225.644 C 262.345 225.140,263.200 224.592,263.200 224.425 C 263.200 224.258,263.875 223.817,264.700 223.446 C 266.638 222.573,270.532 220.416,270.796 220.069 C 270.908 219.921,271.540 219.523,272.200 219.185 L 273.400 218.569 273.400 154.790 C 273.400 94.366,273.363 91.004,272.700 90.876 C 272.315 90.802,272.000 90.894,272.000 91.081 M343.812 91.975 C 342.719 92.539,341.576 93.230,341.272 93.511 C 340.969 93.792,340.108 94.278,339.360 94.591 C 338.612 94.903,338.000 95.378,338.000 95.646 C 338.000 95.914,337.894 96.028,337.765 95.899 C 337.636 95.770,336.691 96.180,335.665 96.812 C 334.639 97.443,332.996 98.335,332.014 98.795 C 331.032 99.255,330.132 99.771,330.014 99.942 C 329.794 100.260,324.311 103.388,320.732 105.236 C 319.629 105.805,318.608 106.440,318.463 106.647 C 318.318 106.853,317.435 107.359,316.500 107.772 C 315.565 108.184,314.800 108.640,314.800 108.784 C 314.800 108.928,314.080 109.364,313.200 109.752 C 312.320 110.140,311.600 110.625,311.600 110.829 C 311.600 111.033,311.465 111.171,311.300 111.136 C 309.572 110.771,309.600 110.410,309.600 133.286 L 309.600 154.887 310.539 154.651 C 311.380 154.440,315.587 152.119,316.600 151.306 C 316.820 151.130,317.945 150.541,319.100 149.998 C 320.255 149.455,321.200 148.876,321.200 148.711 C 321.200 148.546,321.869 148.131,322.686 147.790 C 323.503 147.448,324.268 147.031,324.386 146.862 C 324.504 146.693,325.455 146.160,326.500 145.676 C 327.545 145.192,328.400 144.653,328.400 144.478 C 328.400 144.304,329.028 143.934,329.796 143.656 C 330.563 143.378,331.418 142.926,331.696 142.651 C 331.973 142.376,333.100 141.712,334.200 141.176 C 335.300 140.640,336.290 140.089,336.400 139.953 C 336.510 139.816,337.500 139.220,338.600 138.627 C 339.700 138.033,341.320 137.114,342.200 136.582 C 343.080 136.051,344.385 135.310,345.100 134.934 L 346.400 134.252 346.400 112.750 C 346.400 100.923,346.265 91.180,346.100 91.098 C 345.935 91.016,344.905 91.411,343.812 91.975 M345.600 175.539 C 345.600 175.726,344.925 176.180,344.100 176.548 C 342.466 177.277,338.841 179.324,338.200 179.879 C 337.980 180.070,337.110 180.551,336.267 180.947 C 335.424 181.344,334.074 182.121,333.267 182.674 C 332.460 183.228,331.440 183.846,331.000 184.050 C 330.560 184.253,329.480 184.859,328.600 185.397 C 327.720 185.935,326.243 186.746,325.318 187.198 C 324.392 187.651,323.402 188.242,323.118 188.511 C 322.833 188.780,321.700 189.440,320.600 189.978 C 319.500 190.516,318.420 191.114,318.200 191.308 C 317.541 191.889,314.715 193.523,312.900 194.374 C 311.965 194.813,311.200 195.337,311.200 195.539 C 311.200 195.741,310.840 196.001,310.400 196.116 C 309.613 196.322,309.600 196.662,309.600 217.572 L 309.600 238.820 308.700 239.231 C 307.187 239.923,303.898 241.775,302.000 243.004 C 300.234 244.147,298.154 245.332,294.228 247.432 C 293.144 248.012,292.017 248.726,291.724 249.019 C 291.431 249.312,290.563 249.778,289.796 250.056 C 289.028 250.334,288.400 250.683,288.400 250.834 C 288.400 250.984,287.455 251.590,286.300 252.181 C 283.177 253.780,281.623 254.663,280.872 255.266 C 280.503 255.564,279.480 256.164,278.600 256.600 C 277.720 257.036,276.910 257.499,276.800 257.628 C 276.690 257.758,275.700 258.300,274.600 258.832 C 273.500 259.364,272.251 260.115,271.825 260.500 C 271.398 260.885,270.826 261.200,270.553 261.200 C 270.280 261.200,269.819 261.425,269.529 261.700 C 269.238 261.975,268.190 262.637,267.200 263.170 C 266.210 263.704,265.310 264.246,265.200 264.374 C 265.090 264.503,264.055 265.042,262.900 265.573 C 261.745 266.103,260.800 266.659,260.800 266.808 C 260.800 266.957,260.035 267.416,259.100 267.828 C 258.165 268.241,257.310 268.699,257.200 268.848 C 257.018 269.094,255.295 270.085,251.652 272.039 C 250.911 272.437,250.011 273.005,249.652 273.301 C 249.294 273.597,248.280 274.191,247.400 274.620 C 246.520 275.049,245.706 275.524,245.592 275.675 C 245.477 275.826,244.937 276.140,244.392 276.373 C 243.846 276.605,242.230 277.516,240.800 278.397 C 239.370 279.278,237.885 280.110,237.500 280.246 C 236.745 280.513,236.371 324.000,237.124 324.000 C 237.301 324.000,238.493 323.370,239.772 322.600 C 241.051 321.830,242.255 321.200,242.448 321.200 C 242.642 321.200,243.119 320.885,243.509 320.500 C 243.898 320.115,245.158 319.364,246.309 318.832 C 247.459 318.299,248.402 317.759,248.405 317.632 C 248.407 317.504,249.172 317.043,250.105 316.606 C 251.037 316.169,251.890 315.698,252.000 315.559 C 252.110 315.419,253.100 314.825,254.200 314.238 C 255.300 313.651,256.920 312.739,257.800 312.212 C 258.680 311.684,260.300 310.767,261.400 310.173 C 262.500 309.580,263.490 308.965,263.600 308.807 C 263.710 308.648,264.520 308.186,265.400 307.780 C 266.280 307.374,267.090 306.938,267.200 306.811 C 267.540 306.419,273.183 303.259,274.014 302.996 C 274.446 302.858,274.800 302.583,274.800 302.384 C 274.800 302.185,275.700 301.635,276.800 301.162 C 277.900 300.689,278.800 300.156,278.800 299.978 C 278.800 299.800,279.205 299.528,279.700 299.373 C 280.552 299.108,285.343 296.399,286.200 295.699 C 286.420 295.519,287.410 294.965,288.400 294.468 C 289.390 293.971,291.190 292.958,292.400 292.217 C 293.610 291.476,295.410 290.457,296.400 289.953 C 297.390 289.449,298.549 288.714,298.975 288.318 C 299.402 287.923,299.974 287.600,300.247 287.600 C 300.520 287.600,300.981 287.375,301.271 287.100 C 301.562 286.825,302.700 286.164,303.800 285.632 C 304.900 285.100,305.890 284.539,306.000 284.386 C 306.110 284.233,306.983 283.678,307.940 283.154 C 308.897 282.629,310.462 281.750,311.418 281.200 C 315.034 279.118,318.643 277.089,319.800 276.487 C 320.460 276.144,321.090 275.737,321.200 275.584 C 321.310 275.430,322.300 274.825,323.400 274.238 C 324.500 273.651,326.120 272.739,327.000 272.212 C 327.880 271.684,329.500 270.767,330.600 270.173 C 331.700 269.580,332.690 268.984,332.800 268.848 C 332.910 268.711,333.720 268.242,334.600 267.804 C 335.480 267.366,336.290 266.895,336.400 266.756 C 336.578 266.532,337.609 265.951,342.136 263.521 C 342.831 263.148,343.618 262.652,343.885 262.420 C 344.152 262.187,344.827 261.788,345.385 261.534 L 346.400 261.072 346.400 218.136 C 346.400 189.779,346.264 175.200,346.000 175.200 C 345.780 175.200,345.600 175.353,345.600 175.539 " stroke="none" fill="#000" fill-rule="evenodd"></path><path id="path2" d="" stroke="none" fill="#000" fill-rule="evenodd"></path><path id="path3" d="M163.200 175.520 L 163.400 197.400 163.503 175.824 C 163.560 163.956,163.470 154.110,163.304 153.943 C 163.137 153.776,163.090 163.486,163.200 175.520 M236.587 302.400 C 236.587 314.390,236.638 319.295,236.700 313.300 C 236.762 307.305,236.762 297.495,236.700 291.500 C 236.638 285.505,236.587 290.410,236.587 302.400 " stroke="none" fill="#000" fill-rule="evenodd"></path></g></svg>