<svg id="svg" version="1.1" xmlns="http://www.w3.org/2000/svg" xmlns:xlink="http://www.w3.org/1999/xlink" width="20" height="20" viewBox="0, 0, 300,300"><g id="svgg"><path id="path0" d="M194.800 110.633 C 194.250 110.727,191.820 110.978,189.400 111.192 C 180.986 111.935,170.678 114.391,166.120 116.739 C 165.724 116.943,164.320 117.621,163.000 118.245 C 155.335 121.871,146.160 129.271,141.482 135.600 C 140.588 136.810,139.734 137.890,139.586 138.000 C 137.456 139.577,130.526 153.769,127.807 162.123 C 126.660 165.647,125.849 169.326,126.667 167.293 C 127.168 166.049,133.507 159.494,136.661 156.959 C 137.727 156.101,138.660 155.265,138.733 155.100 C 138.807 154.935,139.122 154.800,139.433 154.800 C 139.745 154.800,140.000 154.648,140.000 154.463 C 140.000 154.278,140.630 153.787,141.400 153.372 C 142.170 152.957,142.800 152.508,142.800 152.373 C 142.800 151.946,150.038 148.553,153.200 147.497 C 160.582 145.032,171.987 145.106,179.800 147.669 C 182.501 148.555,185.732 150.047,185.933 150.500 C 186.007 150.665,186.325 150.800,186.641 150.800 C 188.458 150.800,196.777 157.728,206.410 167.262 C 215.996 176.749,219.727 180.135,223.757 183.000 C 224.376 183.440,225.282 184.104,225.772 184.475 C 227.379 185.693,232.101 188.800,232.353 188.805 C 232.741 188.813,238.956 192.021,239.380 192.432 C 239.589 192.634,240.056 192.800,240.419 192.800 C 241.023 192.800,242.773 193.498,244.495 194.426 C 244.877 194.632,245.554 194.800,246.000 194.800 C 246.446 194.800,247.123 194.967,247.505 195.171 C 248.679 195.798,252.292 196.800,253.381 196.800 C 253.947 196.800,254.723 196.967,255.105 197.170 C 257.956 198.689,276.579 199.284,279.425 197.946 C 280.386 197.494,281.404 197.207,281.687 197.307 C 281.969 197.407,282.862 197.230,283.672 196.912 C 284.847 196.452,285.857 196.412,288.672 196.712 C 290.612 196.919,292.455 196.955,292.766 196.791 C 293.103 196.615,292.328 196.377,290.859 196.207 C 289.015 195.993,288.280 195.723,287.973 195.149 C 287.746 194.725,287.344 194.486,287.080 194.618 C 286.816 194.751,286.918 194.599,287.307 194.280 C 288.151 193.590,287.885 192.662,286.677 192.078 C 285.825 191.666,285.830 191.653,286.876 191.627 C 287.468 191.612,288.047 191.753,288.162 191.939 C 288.278 192.126,289.053 192.168,289.886 192.033 L 291.400 191.788 291.515 188.094 L 291.630 184.400 293.615 184.400 L 295.600 184.400 295.600 182.000 L 295.600 179.600 297.000 179.600 C 297.978 179.600,298.400 179.419,298.400 179.000 C 298.400 178.670,298.593 178.400,298.829 178.400 C 299.466 178.400,300.400 177.347,300.400 176.629 C 300.400 176.028,300.135 175.954,297.609 175.843 C 295.615 175.756,296.121 174.400,298.147 174.400 C 300.145 174.400,300.746 173.901,299.934 172.917 C 299.513 172.406,299.506 172.234,299.902 172.101 C 300.179 172.008,300.312 171.782,300.199 171.598 C 300.085 171.415,300.246 171.012,300.555 170.702 C 301.037 170.220,301.004 170.070,300.317 169.641 C 299.861 169.356,299.631 169.326,299.782 169.570 C 300.171 170.201,299.637 170.094,298.946 169.403 C 298.618 169.075,298.461 168.625,298.598 168.403 C 298.735 168.181,298.657 168.000,298.424 168.000 C 298.191 168.000,298.000 167.820,298.000 167.600 C 298.000 167.098,299.603 167.088,300.389 167.585 C 300.889 167.901,300.869 167.999,300.255 168.234 C 299.687 168.452,299.647 168.584,300.066 168.850 C 300.728 169.269,302.916 169.311,302.663 168.900 C 302.561 168.735,303.090 168.555,303.839 168.500 C 305.051 168.411,305.200 168.510,305.200 169.400 C 305.200 169.950,305.383 170.400,305.608 170.400 C 305.838 170.400,305.911 169.983,305.775 169.444 C 305.643 168.918,305.730 168.367,305.968 168.220 C 306.907 167.640,306.312 167.200,304.587 167.200 C 303.345 167.200,302.702 167.011,302.545 166.600 C 302.376 166.159,301.680 166.000,299.924 166.000 C 298.241 166.000,297.581 165.858,297.693 165.520 C 297.876 164.971,301.239 165.037,303.305 165.630 C 305.067 166.135,313.200 166.111,313.200 165.600 C 313.200 165.354,311.192 165.200,307.976 165.200 C 304.596 165.200,302.840 165.059,303.000 164.800 C 303.151 164.555,302.522 164.400,301.377 164.400 C 299.057 164.400,295.827 163.427,291.560 161.442 C 290.328 160.869,289.175 160.400,288.998 160.400 C 288.821 160.400,288.079 159.945,287.350 159.389 C 286.373 158.644,285.733 158.440,284.913 158.614 C 283.979 158.812,283.914 158.778,284.508 158.401 C 285.478 157.785,284.958 157.117,283.662 157.315 C 283.078 157.403,282.825 157.401,283.100 157.309 C 283.937 157.028,283.664 156.657,281.574 155.239 C 279.012 153.502,276.800 151.477,276.800 150.872 C 276.800 150.612,276.610 150.400,276.378 150.400 C 276.146 150.400,272.499 146.935,268.275 142.700 C 260.647 135.053,257.723 132.286,254.430 129.600 C 253.486 128.830,252.489 127.988,252.215 127.730 C 248.909 124.610,234.779 116.641,230.400 115.427 C 229.850 115.275,229.040 115.001,228.600 114.819 C 228.160 114.637,226.630 114.184,225.200 113.812 C 223.770 113.441,221.970 112.970,221.200 112.766 C 215.921 111.370,198.662 109.976,194.800 110.633 M290.800 162.400 C 290.800 162.620,290.395 162.797,289.900 162.794 C 289.172 162.789,289.115 162.714,289.600 162.400 C 290.376 161.899,290.800 161.899,290.800 162.400 M294.283 163.643 C 294.527 163.887,295.328 164.228,296.063 164.402 L 297.400 164.718 295.980 164.759 C 294.541 164.801,292.409 164.050,292.403 163.500 C 292.398 163.039,293.784 163.144,294.283 163.643 M317.200 165.600 C 317.200 165.820,317.819 166.000,318.576 166.000 C 319.333 166.000,320.064 165.820,320.200 165.600 C 320.349 165.358,319.804 165.200,318.824 165.200 C 317.931 165.200,317.200 165.380,317.200 165.600 M296.302 166.700 C 296.479 167.239,294.955 167.388,293.799 166.944 C 293.266 166.740,293.240 166.619,293.666 166.341 C 294.403 165.860,296.103 166.092,296.302 166.700 M291.855 167.722 C 292.008 167.875,291.743 168.000,291.267 168.000 C 290.790 168.000,290.400 167.836,290.400 167.635 C 290.400 167.229,291.423 167.289,291.855 167.722 M317.200 185.600 C 317.200 185.820,317.459 186.000,317.776 186.000 C 318.093 186.000,318.464 185.820,318.600 185.600 C 318.736 185.380,318.477 185.200,318.024 185.200 C 317.571 185.200,317.200 185.380,317.200 185.600 M294.000 192.157 C 294.000 192.836,294.979 193.260,295.810 192.941 C 296.281 192.760,296.315 192.580,295.961 192.153 C 295.365 191.435,294.000 191.438,294.000 192.157 M290.605 193.900 C 290.678 194.285,290.753 194.651,290.769 194.714 C 290.786 194.777,291.160 194.635,291.600 194.400 C 292.691 193.816,292.607 193.200,291.435 193.200 C 290.732 193.200,290.507 193.390,290.605 193.900 M298.700 193.482 C 299.195 193.578,300.005 193.578,300.500 193.482 C 300.995 193.387,300.590 193.309,299.600 193.309 C 298.610 193.309,298.205 193.387,298.700 193.482 M305.300 193.476 C 305.685 193.576,306.315 193.576,306.700 193.476 C 307.085 193.375,306.770 193.293,306.000 193.293 C 305.230 193.293,304.915 193.375,305.300 193.476 M283.600 195.600 C 284.379 196.103,282.171 196.103,281.000 195.600 C 280.346 195.319,280.456 195.252,281.600 195.234 C 282.370 195.222,283.270 195.387,283.600 195.600 M299.300 195.476 C 299.685 195.576,300.315 195.576,300.700 195.476 C 301.085 195.375,300.770 195.293,300.000 195.293 C 299.230 195.293,298.915 195.375,299.300 195.476 M296.000 196.400 C 296.000 196.620,296.360 196.800,296.800 196.800 C 297.240 196.800,297.600 196.620,297.600 196.400 C 297.600 196.180,297.240 196.000,296.800 196.000 C 296.360 196.000,296.000 196.180,296.000 196.400 M281.821 197.940 C 281.096 198.243,281.110 198.284,282.021 198.527 C 283.488 198.920,286.917 198.841,287.600 198.400 C 288.072 198.095,287.977 198.011,287.156 198.006 C 286.582 198.003,285.322 197.913,284.356 197.807 C 283.390 197.701,282.250 197.761,281.821 197.940 M118.800 200.615 C 118.470 200.711,116.310 200.968,114.000 201.186 C 107.374 201.813,99.148 203.475,96.200 204.783 C 95.760 204.978,94.500 205.454,93.400 205.841 C 80.469 210.388,66.130 223.050,59.926 235.400 C 59.594 236.060,58.851 237.470,58.275 238.534 C 56.798 241.259,52.947 251.009,52.402 253.400 C 52.152 254.500,51.779 255.713,51.573 256.095 C 50.670 257.774,51.338 257.623,52.900 255.794 C 59.719 247.810,67.894 241.596,75.800 238.387 C 88.033 233.421,104.126 235.251,114.941 242.838 C 116.008 243.587,117.166 244.380,117.513 244.600 C 119.422 245.811,123.767 249.777,130.440 256.400 C 139.209 265.103,145.390 270.790,147.143 271.766 C 147.504 271.967,147.890 272.250,148.000 272.394 C 148.308 272.797,152.737 276.000,152.987 276.000 C 153.109 276.000,154.105 276.630,155.200 277.400 C 156.295 278.170,157.287 278.800,157.404 278.800 C 157.520 278.800,158.329 279.250,159.200 279.800 C 160.071 280.350,160.971 280.800,161.200 280.800 C 161.429 280.800,162.329 281.250,163.200 281.800 C 164.071 282.350,165.064 282.800,165.406 282.800 C 165.748 282.800,166.451 283.077,166.968 283.416 C 167.484 283.754,168.063 283.993,168.253 283.946 C 168.444 283.899,169.140 284.094,169.800 284.380 C 172.730 285.649,175.206 286.362,177.800 286.683 C 178.680 286.793,179.571 287.044,179.780 287.241 C 179.989 287.438,180.928 287.600,181.866 287.600 C 182.804 287.600,184.343 287.853,185.286 288.162 C 186.763 288.647,195.298 289.293,199.600 289.247 C 205.246 289.185,213.228 288.534,213.661 288.100 C 213.945 287.816,215.152 287.600,216.456 287.600 C 217.719 287.600,218.864 287.420,219.000 287.200 C 219.136 286.980,219.788 286.800,220.450 286.800 C 222.714 286.800,224.056 285.528,222.300 285.047 C 220.931 284.671,222.195 284.014,224.300 284.006 C 227.721 283.994,226.424 282.810,222.900 282.728 C 220.598 282.674,220.315 282.618,221.800 282.511 C 223.004 282.423,223.990 282.116,224.276 281.739 C 224.704 281.176,224.867 281.192,225.876 281.899 C 226.494 282.332,227.540 282.869,228.200 283.092 L 229.400 283.498 227.900 283.793 C 227.075 283.956,226.400 284.249,226.400 284.445 C 226.400 284.640,226.055 284.800,225.633 284.800 C 224.550 284.800,223.600 285.215,223.600 285.687 C 223.600 286.160,226.402 285.730,226.980 285.169 C 227.189 284.966,227.752 284.800,228.231 284.800 C 228.710 284.800,229.326 284.530,229.600 284.200 C 229.874 283.870,230.498 283.600,230.988 283.600 C 231.838 283.600,234.400 282.527,234.400 282.171 C 234.400 282.077,233.860 282.000,233.200 282.000 C 232.400 282.000,232.000 282.200,232.000 282.600 C 232.000 283.310,231.807 283.339,230.774 282.786 C 229.708 282.216,229.803 281.600,230.957 281.600 C 231.484 281.600,232.026 281.310,232.162 280.955 C 232.344 280.480,232.545 280.422,232.925 280.737 C 233.727 281.403,236.800 281.797,236.800 281.234 C 236.800 280.976,236.504 280.818,236.141 280.882 C 235.238 281.044,234.968 280.064,235.825 279.735 C 236.254 279.571,236.702 279.725,237.007 280.142 C 238.031 281.542,239.470 279.994,238.658 278.365 C 238.265 277.578,238.305 277.278,238.892 276.608 C 240.941 274.269,240.876 274.400,240.109 274.162 C 237.363 273.309,235.899 271.590,238.000 271.686 C 239.375 271.748,240.002 271.503,240.013 270.900 C 240.032 269.842,241.078 268.668,241.766 268.932 C 242.211 269.102,242.441 268.791,242.636 267.750 C 242.782 266.972,243.159 266.237,243.473 266.116 C 243.788 265.996,243.958 265.667,243.850 265.386 C 243.742 265.105,243.998 264.564,244.418 264.184 C 244.838 263.804,245.082 263.333,244.961 263.137 C 244.840 262.941,244.889 262.806,245.070 262.837 C 246.002 262.999,246.817 262.751,246.585 262.376 C 246.441 262.143,246.503 261.468,246.724 260.876 C 246.945 260.284,247.245 259.440,247.391 259.000 C 247.649 258.226,247.675 258.224,248.204 258.943 C 248.729 259.657,248.789 259.647,249.735 258.701 C 250.878 257.558,252.000 257.037,252.000 257.650 C 252.000 257.910,252.624 258.003,253.608 257.889 C 254.493 257.787,255.315 257.863,255.436 258.058 C 255.786 258.624,256.365 258.057,257.006 256.524 C 257.691 254.884,257.778 253.843,257.200 254.200 C 256.825 254.432,256.623 253.633,256.770 252.500 C 256.806 252.225,256.512 251.994,256.118 251.987 C 255.723 251.980,255.068 251.723,254.661 251.415 C 253.820 250.778,252.800 251.012,252.800 251.843 C 252.800 252.535,251.352 252.582,251.033 251.900 C 250.847 251.500,250.753 251.500,250.567 251.900 C 250.438 252.175,249.682 252.400,248.887 252.400 C 247.816 252.400,247.557 252.517,247.890 252.850 C 248.201 253.161,248.687 253.180,249.470 252.911 C 250.766 252.465,251.600 252.643,251.600 253.365 C 251.600 253.706,250.906 253.853,249.400 253.832 C 248.190 253.814,247.199 253.890,247.197 254.000 C 247.196 254.110,245.351 254.252,243.097 254.315 C 240.844 254.379,238.514 254.622,237.919 254.856 C 235.712 255.724,220.400 253.892,220.400 252.759 C 220.400 252.617,219.887 252.397,219.260 252.272 C 217.225 251.865,211.505 248.881,208.771 246.800 C 204.461 243.519,202.865 242.058,194.569 233.800 C 177.616 216.923,170.789 211.767,158.600 206.635 C 157.720 206.264,156.687 205.790,156.305 205.581 C 155.923 205.371,155.278 205.200,154.872 205.200 C 154.466 205.200,153.998 205.065,153.834 204.900 C 153.497 204.564,150.135 203.655,148.000 203.323 C 147.230 203.203,146.420 202.962,146.200 202.787 C 144.789 201.665,121.534 199.821,118.800 200.615 M270.000 240.424 C 270.000 241.137,270.167 241.544,270.400 241.400 C 270.620 241.264,270.800 240.713,270.800 240.176 C 270.800 239.639,270.620 239.200,270.400 239.200 C 270.180 239.200,270.000 239.751,270.000 240.424 M266.487 241.786 C 266.016 242.328,265.800 242.876,266.007 243.004 C 266.636 243.393,268.000 242.423,268.000 241.586 C 268.000 240.533,267.522 240.596,266.487 241.786 M263.101 244.318 C 262.470 244.445,262.462 244.519,263.020 245.077 C 263.696 245.753,264.149 245.576,263.935 244.720 C 263.861 244.421,263.485 244.240,263.101 244.318 M265.084 244.800 C 264.969 245.239,265.022 245.690,265.201 245.801 C 265.803 246.173,266.800 245.522,266.800 244.757 C 266.800 243.727,265.355 243.762,265.084 244.800 M260.400 246.233 C 259.434 246.769,259.430 246.788,260.280 246.794 C 260.764 246.797,261.320 247.085,261.514 247.433 C 261.736 247.829,262.271 248.016,262.943 247.933 L 264.018 247.800 262.993 246.700 C 261.845 245.468,261.795 245.459,260.400 246.233 M266.460 248.513 C 266.502 249.707,266.569 249.879,266.687 249.100 C 266.778 248.495,267.021 248.000,267.227 248.000 C 267.824 248.000,267.658 247.308,267.000 247.055 C 266.520 246.871,266.412 247.163,266.460 248.513 M258.462 249.000 C 257.740 249.422,257.628 250.988,258.275 251.635 C 258.755 252.115,260.614 250.521,260.882 249.400 C 261.097 248.498,259.714 248.269,258.462 249.000 M255.200 250.400 C 255.200 250.620,255.470 250.800,255.800 250.800 C 256.130 250.800,256.400 250.620,256.400 250.400 C 256.400 250.180,256.130 250.000,255.800 250.000 C 255.470 250.000,255.200 250.180,255.200 250.400 M256.197 253.270 C 256.719 253.748,255.742 254.362,254.836 254.125 C 254.464 254.028,253.946 253.605,253.683 253.185 C 253.168 252.360,255.282 252.431,256.197 253.270 M264.500 252.665 C 263.906 252.904,263.824 254.000,264.400 254.000 C 264.620 254.000,264.800 253.745,264.800 253.433 C 264.800 253.122,265.025 252.776,265.300 252.665 C 265.575 252.554,265.620 252.463,265.400 252.463 C 265.180 252.463,264.775 252.554,264.500 252.665 M219.800 253.600 C 219.664 253.820,219.293 254.000,218.976 254.000 C 218.659 254.000,218.400 253.820,218.400 253.600 C 218.400 253.380,218.771 253.200,219.224 253.200 C 219.677 253.200,219.936 253.380,219.800 253.600 M254.117 254.500 C 255.516 255.150,255.571 256.400,254.200 256.400 C 253.569 256.400,253.200 256.174,253.200 255.787 C 253.200 255.451,252.930 255.071,252.600 254.945 C 251.863 254.662,251.807 254.000,252.520 254.000 C 252.806 254.000,253.525 254.225,254.117 254.500 M247.716 255.600 C 247.933 256.430,247.688 256.599,247.000 256.094 C 246.372 255.633,246.342 254.800,246.953 254.800 C 247.258 254.800,247.601 255.160,247.716 255.600 M250.800 255.828 C 250.800 256.245,250.508 256.413,249.931 256.328 C 248.651 256.139,248.514 255.200,249.767 255.200 C 250.439 255.200,250.800 255.419,250.800 255.828 M242.170 257.149 C 241.746 257.561,241.241 257.805,241.046 257.692 C 240.851 257.579,241.121 257.248,241.646 256.957 C 242.955 256.231,243.070 256.273,242.170 257.149 M259.757 257.833 C 259.891 258.181,260.000 258.541,260.000 258.633 C 260.000 258.725,260.270 258.800,260.600 258.800 C 260.930 258.800,261.200 259.010,261.200 259.267 C 261.200 259.523,261.295 259.638,261.411 259.522 C 261.827 259.106,260.806 257.200,260.167 257.200 C 259.736 257.200,259.597 257.415,259.757 257.833 M257.649 260.252 C 257.386 260.830,257.291 261.415,257.440 261.552 C 257.588 261.688,257.790 261.575,257.888 261.300 C 258.100 260.707,259.200 260.623,259.200 261.200 C 259.200 261.420,259.372 261.600,259.581 261.600 C 259.791 261.600,259.656 261.061,259.281 260.403 C 258.446 258.934,258.257 258.917,257.649 260.252 M249.075 263.858 C 248.553 264.380,248.802 264.800,249.633 264.800 C 250.099 264.800,250.397 264.590,250.308 264.325 C 250.113 263.740,249.446 263.488,249.075 263.858 M252.284 264.400 C 252.159 264.879,251.738 265.200,251.237 265.200 C 250.318 265.200,250.289 265.246,250.643 266.167 C 251.027 267.170,252.920 267.008,252.600 266.000 C 252.420 265.432,252.528 265.200,252.973 265.200 C 253.333 265.200,253.600 264.860,253.600 264.400 C 253.600 263.960,253.351 263.600,253.047 263.600 C 252.742 263.600,252.399 263.960,252.284 264.400 M246.673 264.820 C 245.983 265.482,246.347 266.327,247.116 265.852 C 247.290 265.744,247.360 266.276,247.272 267.034 C 247.119 268.345,247.694 269.600,248.449 269.600 C 249.101 269.600,248.806 268.088,248.100 267.814 C 247.433 267.556,247.433 267.518,248.100 267.027 C 248.942 266.407,249.028 265.200,248.229 265.200 C 247.915 265.200,247.600 264.957,247.529 264.660 C 247.429 264.243,247.235 264.279,246.673 264.820 M248.800 267.400 C 248.800 267.730,249.061 268.000,249.380 268.000 C 249.699 268.000,250.125 268.295,250.327 268.656 C 250.540 269.035,250.898 269.186,251.177 269.014 C 251.526 268.798,251.411 268.450,250.760 267.758 C 249.743 266.675,248.800 266.503,248.800 267.400 M241.433 271.500 C 241.268 271.665,240.938 271.800,240.700 271.800 C 240.462 271.800,240.192 272.025,240.100 272.300 C 240.008 272.575,240.218 272.800,240.567 272.800 C 240.915 272.800,241.200 272.980,241.200 273.200 C 241.200 273.420,241.454 273.600,241.765 273.600 C 242.132 273.600,242.291 273.245,242.218 272.587 C 242.089 271.407,241.853 271.080,241.433 271.500 M247.538 271.729 C 246.934 272.189,246.960 272.313,247.838 273.158 C 248.603 273.895,248.800 273.953,248.800 273.442 C 248.800 273.089,249.070 272.800,249.400 272.800 C 249.730 272.800,250.000 272.620,250.000 272.400 C 250.000 272.180,249.730 272.000,249.400 272.000 C 249.070 272.000,248.800 271.820,248.800 271.600 C 248.800 271.068,248.346 271.114,247.538 271.729 M244.800 273.400 C 244.800 273.733,245.156 274.000,245.600 274.000 C 246.044 274.000,246.400 273.733,246.400 273.400 C 246.400 273.067,246.044 272.800,245.600 272.800 C 245.156 272.800,244.800 273.067,244.800 273.400 M234.204 274.793 C 234.089 274.979,234.221 275.215,234.498 275.316 C 234.900 275.463,234.900 275.606,234.500 276.030 C 234.139 276.413,234.000 276.427,234.000 276.080 C 234.000 275.816,233.865 275.621,233.700 275.647 C 232.358 275.859,231.795 274.596,233.100 274.300 C 233.959 274.105,234.485 274.340,234.204 274.793 M242.800 274.400 C 242.800 274.620,242.440 274.800,242.000 274.800 C 241.556 274.800,241.200 275.067,241.200 275.400 C 241.200 275.730,241.541 276.000,241.957 276.000 C 242.374 276.000,242.818 275.730,242.945 275.400 C 243.071 275.070,243.451 274.800,243.787 274.800 C 244.124 274.800,244.400 274.620,244.400 274.400 C 244.400 274.180,244.040 274.000,243.600 274.000 C 243.160 274.000,242.800 274.180,242.800 274.400 M244.630 276.024 C 244.207 276.451,244.044 276.800,244.268 276.800 C 244.492 276.800,245.002 276.440,245.400 276.000 C 246.328 274.974,245.650 274.995,244.630 276.024 M239.867 277.067 C 239.406 277.527,239.575 278.000,240.200 278.000 C 240.530 278.000,240.800 277.730,240.800 277.400 C 240.800 276.775,240.327 276.606,239.867 277.067 M229.400 280.400 C 229.536 280.620,229.266 280.800,228.800 280.800 C 228.334 280.800,228.064 280.620,228.200 280.400 C 228.336 280.180,228.606 280.000,228.800 280.000 C 228.994 280.000,229.264 280.180,229.400 280.400 M220.000 285.256 C 220.000 285.578,217.902 286.800,217.350 286.800 C 217.191 286.800,217.455 286.380,217.937 285.867 C 218.789 284.961,220.000 284.602,220.000 285.256 " stroke="none" fill="#000" fill-rule="evenodd"></path><path id="path1" d="M0.000 200.000 L 0.000 400.000 200.000 400.000 L 400.000 400.000 400.000 200.000 L 400.000 0.000 200.000 0.000 L 0.000 0.000 0.000 200.000 M215.177 110.222 C 217.280 110.564,219.553 111.014,220.228 111.222 C 220.904 111.430,221.854 111.600,222.339 111.600 C 223.187 111.600,228.061 113.050,231.400 114.297 C 233.053 114.913,235.785 116.121,239.600 117.922 C 242.240 119.168,248.146 122.776,248.333 123.257 C 248.407 123.446,248.644 123.600,248.860 123.600 C 249.250 123.600,251.831 125.410,252.600 126.223 C 252.820 126.455,253.720 127.170,254.600 127.810 C 255.480 128.451,256.830 129.551,257.600 130.256 C 258.370 130.961,259.450 131.921,260.000 132.389 C 260.550 132.857,264.510 136.699,268.800 140.927 C 281.754 153.692,286.775 157.673,292.684 159.862 C 294.178 160.416,295.760 161.014,296.200 161.191 C 302.420 163.702,315.484 163.704,322.200 161.195 C 325.443 159.983,326.961 159.222,329.512 157.531 C 331.113 156.469,332.605 155.600,332.826 155.600 C 334.123 155.600,342.998 147.423,348.193 141.442 C 350.243 139.082,350.486 140.188,349.153 145.800 C 348.148 150.031,348.205 149.865,347.225 151.400 C 346.803 152.060,346.445 153.006,346.429 153.503 C 346.413 154.000,345.975 155.260,345.455 156.303 C 343.800 159.628,342.400 162.804,342.400 163.236 C 342.400 163.465,341.973 164.226,341.450 164.927 C 340.928 165.627,339.908 167.280,339.185 168.600 C 335.009 176.222,320.707 190.332,317.100 190.389 C 316.715 190.395,316.400 190.588,316.400 190.817 C 316.400 191.046,315.275 191.743,313.900 192.366 C 312.525 192.988,310.410 193.949,309.200 194.501 C 304.549 196.621,298.155 198.451,291.200 199.652 C 283.970 200.901,261.775 200.470,255.468 198.959 C 254.185 198.652,252.783 198.400,252.352 198.400 C 251.553 198.400,244.140 196.006,241.600 194.928 C 238.175 193.473,229.600 189.055,229.600 188.744 C 229.600 188.555,229.352 188.400,229.049 188.400 C 228.746 188.400,228.298 188.160,228.055 187.866 C 227.811 187.572,226.778 186.903,225.760 186.379 C 224.742 185.856,223.820 185.196,223.711 184.914 C 223.603 184.631,223.293 184.400,223.022 184.400 C 222.752 184.400,221.644 183.545,220.560 182.500 C 219.477 181.455,217.872 180.064,216.995 179.409 C 215.328 178.164,214.365 177.246,202.590 165.681 C 193.707 156.957,186.499 151.200,184.460 151.200 C 184.207 151.200,184.000 151.020,184.000 150.800 C 184.000 150.580,183.736 150.400,183.414 150.400 C 182.874 150.400,180.786 149.601,179.105 148.751 C 178.723 148.558,178.003 148.398,177.505 148.396 C 177.007 148.393,175.700 148.106,174.600 147.758 C 171.428 146.754,161.135 146.835,157.000 147.897 C 153.477 148.802,148.714 150.443,148.399 150.861 C 148.288 151.008,147.401 151.446,146.426 151.836 C 145.452 152.226,144.344 152.856,143.963 153.237 C 143.583 153.617,142.625 154.235,141.836 154.610 C 141.046 154.985,140.400 155.422,140.400 155.583 C 140.400 155.743,139.529 156.469,138.463 157.196 C 136.756 158.361,131.162 163.958,127.064 168.600 C 125.986 169.821,125.539 170.090,125.180 169.735 C 124.507 169.070,125.266 164.043,126.255 162.611 C 126.555 162.177,126.800 161.423,126.800 160.935 C 126.800 160.447,126.980 159.936,127.200 159.800 C 127.420 159.664,127.600 159.276,127.600 158.937 C 127.600 158.598,127.870 157.709,128.200 156.960 C 128.530 156.212,129.070 154.988,129.400 154.240 C 129.730 153.491,130.000 152.777,130.000 152.651 C 130.000 152.135,132.033 148.027,132.401 147.799 C 132.621 147.664,132.800 147.303,132.800 146.998 C 132.800 145.297,140.386 134.465,144.796 129.870 C 149.320 125.155,156.633 119.669,161.207 117.557 C 161.973 117.203,163.410 116.541,164.400 116.084 C 166.303 115.208,169.263 114.087,170.600 113.738 C 171.040 113.623,171.670 113.424,172.000 113.297 C 174.881 112.182,179.091 111.215,186.200 110.032 C 189.997 109.401,210.976 109.539,215.177 110.222 M138.671 200.007 C 143.997 200.698,151.113 202.316,152.895 203.240 C 153.277 203.438,153.855 203.600,154.181 203.600 C 154.507 203.600,155.454 203.895,156.286 204.255 C 157.119 204.616,158.160 205.050,158.600 205.219 C 162.268 206.632,171.497 211.500,172.788 212.703 C 173.317 213.196,173.944 213.600,174.180 213.600 C 174.415 213.600,175.093 214.050,175.687 214.600 C 176.280 215.150,176.918 215.600,177.106 215.600 C 177.293 215.600,178.595 216.680,180.000 218.000 C 181.405 219.320,182.702 220.400,182.882 220.400 C 183.063 220.400,187.822 224.945,193.458 230.500 C 199.093 236.055,203.906 240.780,204.153 241.000 C 207.233 243.748,214.564 248.800,215.472 248.800 C 215.762 248.800,216.000 248.980,216.000 249.200 C 216.000 249.420,216.198 249.600,216.440 249.600 C 216.681 249.600,217.446 249.845,218.140 250.144 C 220.982 251.370,221.680 251.600,222.557 251.600 C 223.063 251.600,224.082 251.902,224.822 252.271 C 226.815 253.265,240.038 253.264,243.200 252.270 C 244.410 251.889,246.030 251.382,246.800 251.143 C 253.744 248.986,260.908 244.253,267.681 237.348 C 269.596 235.397,271.666 233.134,272.281 232.319 C 274.155 229.839,275.200 229.868,275.200 232.400 C 275.200 233.254,275.020 234.064,274.800 234.200 C 274.580 234.336,274.400 234.880,274.400 235.410 C 274.400 236.271,273.748 238.123,272.751 240.095 C 272.558 240.477,272.400 240.983,272.400 241.219 C 272.400 241.456,271.977 242.583,271.460 243.725 C 270.942 244.866,270.276 246.589,269.978 247.553 C 269.681 248.517,269.204 249.539,268.919 249.824 C 268.633 250.110,268.400 250.536,268.400 250.773 C 268.400 251.250,265.529 256.686,264.230 258.667 C 254.573 273.403,243.459 281.956,227.600 286.858 C 226.170 287.299,224.640 287.809,224.200 287.989 C 223.217 288.393,220.203 288.997,215.200 289.792 C 208.972 290.783,189.826 290.643,183.727 289.563 C 176.350 288.256,175.959 288.171,173.200 287.262 C 171.770 286.791,169.970 286.203,169.200 285.954 C 168.430 285.706,166.810 285.056,165.600 284.510 C 164.390 283.963,162.680 283.233,161.800 282.886 C 159.926 282.147,151.862 277.265,151.667 276.751 C 151.593 276.558,151.356 276.400,151.140 276.400 C 150.795 276.400,148.143 274.587,147.600 273.981 C 147.490 273.858,146.680 273.237,145.800 272.602 C 144.920 271.966,144.020 271.255,143.800 271.023 C 143.580 270.790,142.590 269.899,141.600 269.042 C 140.610 268.185,136.010 263.775,131.379 259.242 C 121.380 249.456,118.639 246.930,116.900 245.895 C 116.185 245.469,115.600 244.959,115.600 244.760 C 115.600 244.562,115.344 244.400,115.031 244.400 C 114.718 244.400,113.953 243.980,113.331 243.466 C 111.830 242.227,108.669 240.598,106.210 239.797 C 105.115 239.440,104.035 239.001,103.810 238.822 C 103.584 238.642,102.770 238.403,102.000 238.290 C 101.230 238.178,98.710 237.778,96.400 237.402 C 91.586 236.617,84.232 236.837,82.239 237.825 C 81.600 238.141,80.598 238.400,80.013 238.400 C 79.428 238.400,78.017 238.850,76.877 239.400 C 75.737 239.950,74.638 240.400,74.434 240.400 C 73.898 240.400,71.578 241.686,70.653 242.495 C 70.216 242.878,69.531 243.295,69.129 243.422 C 68.728 243.550,68.400 243.822,68.400 244.027 C 68.400 244.232,68.127 244.400,67.794 244.400 C 66.142 244.400,59.530 250.150,53.348 256.963 C 50.568 260.027,49.600 260.489,49.600 258.750 C 49.600 258.309,49.813 257.554,50.074 257.074 C 50.508 256.273,50.880 254.733,51.464 251.314 C 51.585 250.607,51.935 249.820,52.242 249.565 C 52.549 249.310,52.800 248.775,52.800 248.375 C 52.800 247.975,52.980 247.536,53.200 247.400 C 53.420 247.264,53.600 246.802,53.600 246.373 C 53.600 245.945,54.023 244.740,54.540 243.697 C 55.429 241.903,55.716 241.275,57.415 237.400 C 57.801 236.520,58.602 235.080,59.194 234.200 C 59.786 233.320,60.691 231.745,61.206 230.700 C 61.721 229.655,62.290 228.800,62.471 228.800 C 62.652 228.800,62.800 228.545,62.800 228.233 C 62.800 227.922,62.935 227.607,63.100 227.533 C 63.265 227.460,64.300 226.240,65.400 224.822 C 68.905 220.304,78.229 211.600,79.563 211.600 C 79.803 211.600,80.000 211.420,80.000 211.200 C 80.000 210.980,80.189 210.800,80.419 210.800 C 80.650 210.800,81.775 210.203,82.919 209.474 C 85.471 207.849,87.555 206.800,88.233 206.800 C 88.513 206.800,88.983 206.575,89.278 206.300 C 90.139 205.494,92.441 204.499,94.700 203.955 C 95.855 203.676,96.800 203.303,96.800 203.124 C 96.800 202.946,97.256 202.800,97.813 202.800 C 98.370 202.800,99.472 202.530,100.262 202.200 C 101.051 201.870,102.205 201.600,102.825 201.600 C 103.445 201.600,104.064 201.420,104.200 201.200 C 104.336 200.980,105.202 200.792,106.124 200.783 C 107.046 200.773,108.880 200.521,110.200 200.224 C 113.158 199.556,133.982 199.397,138.671 200.007 " stroke="none" fill="#fbfbfb" fill-rule="evenodd"></path><path id="path2" d="M188.200 110.411 C 187.540 110.585,189.160 110.630,191.800 110.510 C 194.440 110.390,196.675 110.226,196.767 110.146 C 197.092 109.861,189.380 110.100,188.200 110.411 M204.033 110.148 C 204.125 110.229,206.180 110.396,208.600 110.518 C 211.104 110.644,212.483 110.600,211.800 110.417 C 210.617 110.099,203.709 109.860,204.033 110.148 M182.724 111.009 C 182.609 111.124,181.184 111.494,179.558 111.831 C 175.024 112.772,173.885 113.063,172.800 113.559 L 171.800 114.017 172.800 113.840 C 173.350 113.743,174.970 113.366,176.400 113.003 C 177.830 112.640,180.710 112.014,182.800 111.611 C 186.008 110.993,186.314 110.873,184.767 110.839 C 183.758 110.818,182.839 110.894,182.724 111.009 M217.000 111.595 C 219.200 111.995,222.170 112.619,223.600 112.983 C 225.030 113.347,226.650 113.733,227.200 113.841 C 229.315 114.257,225.833 112.958,223.400 112.424 C 222.080 112.134,219.984 111.650,218.742 111.348 C 217.501 111.047,215.701 110.815,214.742 110.834 C 213.419 110.860,213.963 111.043,217.000 111.595 M170.200 114.400 C 170.064 114.620,169.601 114.800,169.171 114.800 C 168.741 114.800,168.077 114.979,167.695 115.197 C 167.313 115.415,165.577 116.227,163.839 117.002 C 162.100 117.777,160.764 118.497,160.869 118.602 C 160.975 118.708,161.767 118.459,162.631 118.050 C 164.425 117.199,167.026 116.061,168.200 115.614 C 170.368 114.788,171.730 114.049,171.124 114.026 C 170.752 114.012,170.336 114.180,170.200 114.400 M229.200 114.600 C 229.750 114.914,230.517 115.178,230.905 115.186 C 231.293 115.194,231.923 115.370,232.305 115.578 C 232.687 115.786,235.074 116.935,237.608 118.131 C 246.920 122.526,254.224 128.115,266.603 140.321 C 280.361 153.887,284.281 157.134,290.600 160.197 C 298.769 164.158,309.884 165.440,318.501 163.417 C 321.204 162.782,321.928 162.532,325.096 161.143 C 326.028 160.735,326.946 160.400,327.136 160.400 C 327.554 160.400,334.483 156.248,335.668 155.287 C 339.075 152.525,342.670 149.228,344.893 146.826 C 346.332 145.272,347.620 144.000,347.755 144.000 C 349.360 144.000,343.187 159.734,338.810 166.800 C 337.924 168.230,337.088 169.715,336.953 170.100 C 336.817 170.485,336.548 170.800,336.353 170.800 C 336.159 170.800,336.000 171.033,336.000 171.319 C 336.000 171.604,335.280 172.541,334.400 173.400 C 333.520 174.259,332.800 175.151,332.799 175.381 C 332.799 175.950,325.087 183.444,322.600 185.294 C 321.500 186.112,320.420 186.925,320.200 187.101 C 317.822 189.000,310.466 192.873,306.400 194.366 C 305.630 194.649,304.640 195.045,304.200 195.245 C 300.513 196.927,289.552 198.935,280.600 199.570 L 276.200 199.882 279.979 199.941 C 293.948 200.159,318.140 192.126,323.200 185.590 C 323.310 185.448,323.703 185.167,324.073 184.965 C 330.357 181.542,342.224 164.358,346.010 153.200 C 346.495 151.770,347.116 150.060,347.390 149.400 C 347.961 148.025,349.005 144.433,349.408 142.457 C 349.793 140.575,349.174 141.018,345.299 145.400 C 343.548 147.380,340.784 150.170,339.157 151.600 C 337.531 153.030,336.140 154.335,336.067 154.500 C 335.993 154.665,335.693 154.800,335.400 154.800 C 335.107 154.800,334.807 154.950,334.733 155.134 C 334.572 155.539,328.359 159.224,326.399 160.078 C 321.830 162.069,321.304 162.227,316.000 163.210 C 309.996 164.322,305.897 164.077,297.000 162.072 C 293.423 161.266,289.136 159.100,283.372 155.186 C 281.381 153.834,276.618 149.449,269.200 142.140 C 259.326 132.410,257.122 130.345,254.400 128.274 C 253.190 127.353,251.930 126.342,251.600 126.027 C 250.917 125.375,245.004 121.488,242.600 120.111 C 239.261 118.198,231.848 114.800,231.013 114.800 C 230.702 114.800,230.336 114.620,230.200 114.400 C 230.064 114.180,229.558 114.006,229.076 114.014 C 228.230 114.028,228.234 114.048,229.200 114.600 M156.890 120.779 C 155.290 121.857,153.826 122.798,153.638 122.870 C 152.193 123.417,142.655 132.550,141.000 134.970 C 140.560 135.613,139.910 136.423,139.555 136.770 C 139.200 137.116,138.840 137.580,138.754 137.800 C 138.669 138.020,137.727 139.518,136.662 141.129 C 135.596 142.740,134.793 144.127,134.878 144.211 C 134.962 144.295,136.318 142.426,137.891 140.056 C 143.052 132.281,156.051 120.000,159.120 120.000 C 159.330 120.000,159.726 119.730,160.000 119.400 C 160.895 118.321,159.851 118.784,156.890 120.779 M133.733 146.083 C 132.900 147.515,132.234 148.909,130.620 152.600 C 130.042 153.920,129.397 155.313,129.185 155.695 C 128.973 156.077,128.804 156.707,128.809 157.095 C 128.818 157.812,129.388 156.757,130.461 154.033 C 130.758 153.281,131.840 150.941,132.868 148.834 C 134.736 145.001,135.176 143.603,133.733 146.083 M158.600 146.450 C 150.499 148.311,144.779 151.026,137.956 156.250 C 135.353 158.243,130.976 162.552,128.331 165.725 C 126.508 167.912,126.373 167.997,126.061 167.153 C 125.753 166.320,125.710 166.351,125.462 167.592 C 125.040 169.701,125.385 169.527,128.691 165.961 C 142.150 151.443,151.494 146.572,165.800 146.618 C 178.584 146.658,186.824 150.062,197.226 159.600 C 197.586 159.930,201.823 164.071,206.640 168.803 C 214.725 176.743,218.442 180.178,221.437 182.479 C 222.077 182.971,222.690 183.470,222.800 183.588 C 224.766 185.712,237.384 192.843,242.200 194.552 C 243.300 194.943,244.560 195.423,245.000 195.619 C 246.553 196.312,253.047 197.942,256.800 198.581 C 258.890 198.937,261.601 199.402,262.824 199.614 C 264.047 199.826,266.927 199.970,269.224 199.933 C 271.521 199.896,272.680 199.810,271.800 199.742 C 254.452 198.402,246.577 196.509,236.200 191.185 C 225.213 185.547,221.542 182.696,207.600 168.969 C 200.165 161.648,197.552 159.197,193.400 155.651 C 184.645 148.173,169.051 144.050,158.600 146.450 M127.300 161.087 C 126.406 163.531,125.883 165.616,126.109 165.842 C 126.240 165.973,126.548 165.298,126.792 164.340 C 127.037 163.383,127.433 162.099,127.673 161.487 C 127.912 160.875,128.018 160.284,127.908 160.174 C 127.798 160.064,127.524 160.475,127.300 161.087 M113.600 200.417 C 112.816 200.591,114.135 200.633,116.600 200.512 C 119.020 200.393,121.075 200.229,121.167 200.148 C 121.476 199.873,115.012 200.103,113.600 200.417 M129.633 200.152 C 129.725 200.236,131.600 200.408,133.800 200.535 C 136.225 200.675,137.406 200.631,136.800 200.423 C 135.833 200.091,129.296 199.844,129.633 200.152 M107.365 201.188 C 106.906 201.374,105.508 201.654,104.260 201.810 C 103.011 201.966,101.875 202.279,101.735 202.505 C 101.568 202.775,101.880 202.816,102.640 202.623 C 103.278 202.462,104.790 202.156,106.000 201.944 C 107.210 201.731,109.010 201.408,110.000 201.226 L 111.800 200.894 110.000 200.872 C 109.010 200.860,107.824 201.003,107.365 201.188 M139.600 201.194 C 140.590 201.375,142.480 201.707,143.800 201.932 C 146.690 202.424,153.184 204.145,155.400 205.007 C 156.280 205.349,157.354 205.743,157.786 205.883 C 167.143 208.917,178.169 216.960,192.800 231.423 C 209.431 247.863,214.437 251.234,225.800 253.644 C 228.954 254.313,239.165 254.317,242.000 253.651 C 244.592 253.041,247.873 252.082,249.000 251.603 C 256.238 248.532,260.877 245.559,265.800 240.836 C 269.104 237.667,273.052 233.422,273.317 232.754 C 273.455 232.406,273.549 232.511,273.568 233.034 C 273.613 234.200,270.966 242.694,270.344 243.380 C 270.155 243.589,270.000 244.014,270.000 244.324 C 270.000 245.084,264.809 255.765,264.357 255.933 C 264.161 256.007,264.000 256.228,264.000 256.426 C 264.000 257.096,261.175 261.204,258.003 265.148 C 249.003 276.337,235.880 284.307,221.400 287.378 C 215.497 288.630,213.289 288.931,204.000 289.749 C 203.230 289.817,204.005 289.901,205.723 289.936 C 211.625 290.057,225.267 287.608,229.800 285.614 C 230.240 285.421,231.500 284.937,232.600 284.539 C 246.910 279.361,259.831 267.005,267.673 251.000 C 268.535 249.240,269.412 247.487,269.620 247.105 C 269.829 246.723,270.000 246.211,270.000 245.966 C 270.000 245.721,270.288 244.864,270.641 244.060 C 271.669 241.716,271.893 241.123,272.626 238.800 C 273.008 237.590,273.551 235.880,273.833 235.000 C 275.353 230.247,274.917 230.283,270.400 235.287 C 255.747 251.519,240.529 256.824,222.021 252.153 C 214.026 250.135,208.666 246.225,193.600 231.427 C 188.650 226.565,183.520 221.669,182.200 220.548 C 178.286 217.223,175.127 214.716,174.235 214.228 C 173.776 213.977,172.320 213.067,171.000 212.207 C 169.680 211.348,167.288 209.956,165.685 209.116 C 161.691 207.022,161.560 206.958,160.200 206.410 C 159.540 206.144,158.490 205.673,157.868 205.363 C 157.245 205.053,156.426 204.800,156.048 204.800 C 155.669 204.800,155.189 204.657,154.980 204.482 C 154.619 204.181,152.126 203.382,148.600 202.438 C 145.763 201.679,142.256 201.081,140.000 200.971 L 137.800 200.864 139.600 201.194 M97.800 203.414 C 96.224 204.136,97.318 204.140,99.600 203.421 C 101.168 202.927,101.246 202.854,100.200 202.859 C 99.540 202.862,98.460 203.112,97.800 203.414 M94.600 204.579 C 92.273 205.517,91.404 205.950,91.800 205.974 C 92.320 206.007,95.878 204.656,96.248 204.285 C 96.639 203.894,96.030 204.003,94.600 204.579 M90.000 206.386 C 89.670 206.572,88.216 207.303,86.768 208.010 C 85.320 208.716,83.700 209.632,83.168 210.044 C 82.636 210.456,84.153 209.817,86.539 208.624 C 88.926 207.431,90.981 206.352,91.106 206.227 C 91.445 205.889,90.688 205.997,90.000 206.386 M78.400 213.058 C 74.677 215.785,69.870 220.283,67.327 223.420 C 66.267 224.728,65.191 226.020,64.935 226.292 C 64.226 227.046,61.021 231.953,59.795 234.162 C 57.612 238.093,56.000 241.324,56.007 241.757 C 56.010 242.001,57.105 240.130,58.440 237.600 C 59.775 235.070,61.122 232.716,61.434 232.369 C 61.745 232.021,62.000 231.624,62.000 231.486 C 62.000 231.072,65.078 226.809,67.542 223.811 C 70.244 220.525,75.468 215.737,79.300 213.034 C 80.785 211.987,82.000 211.056,82.000 210.965 C 82.000 210.545,81.182 211.021,78.400 213.058 M84.800 236.275 C 82.914 236.588,77.044 238.091,76.422 238.420 C 75.032 239.155,73.056 240.000,72.727 240.000 C 70.282 240.000,58.895 249.265,53.086 255.980 C 51.529 257.780,51.200 258.006,51.200 257.275 C 51.200 256.076,52.573 251.199,53.403 249.449 C 53.774 248.669,54.004 247.813,53.915 247.546 C 53.827 247.280,53.521 247.678,53.237 248.431 C 52.952 249.184,52.583 250.160,52.416 250.600 C 52.249 251.040,51.805 252.480,51.431 253.800 C 51.056 255.120,50.582 256.732,50.378 257.383 C 49.774 259.308,50.578 259.369,52.239 257.524 C 62.701 245.904,71.012 240.026,80.075 237.841 C 88.009 235.928,95.074 236.002,103.208 238.086 C 106.538 238.940,114.011 242.494,114.800 243.600 C 114.910 243.754,115.720 244.335,116.600 244.892 C 118.600 246.156,122.924 250.137,132.400 259.439 C 141.649 268.518,144.937 271.569,146.493 272.515 C 147.166 272.924,147.964 273.507,148.267 273.810 C 149.821 275.364,157.319 280.006,161.600 282.064 C 163.030 282.752,164.650 283.539,165.200 283.814 C 166.261 284.345,173.514 286.780,176.200 287.508 C 180.833 288.764,189.790 290.016,193.570 289.936 C 195.237 289.901,195.970 289.813,195.200 289.740 C 184.891 288.767,184.137 288.666,178.600 287.513 C 177.500 287.284,175.790 286.850,174.800 286.548 C 173.810 286.246,172.010 285.708,170.800 285.352 C 169.590 284.997,167.880 284.390,167.000 284.005 C 154.354 278.468,147.191 273.354,134.200 260.589 C 114.785 241.511,110.498 238.692,97.433 236.413 C 95.168 236.018,86.894 235.927,84.800 236.275 M54.827 244.427 C 54.324 245.538,53.992 246.525,54.087 246.620 C 54.182 246.716,54.671 245.884,55.173 244.773 C 55.676 243.662,56.008 242.675,55.913 242.580 C 55.818 242.484,55.329 243.316,54.827 244.427 " stroke="none" fill="#aadcdd" fill-rule="evenodd"></path><path id="path3" d="M198.500 110.294 C 199.545 110.376,201.255 110.376,202.300 110.294 C 203.345 110.212,202.490 110.144,200.400 110.144 C 198.310 110.144,197.455 110.212,198.500 110.294 M188.600 110.800 L 186.200 111.066 188.400 111.086 C 189.610 111.097,191.770 110.975,193.200 110.814 L 195.800 110.522 193.400 110.528 C 192.080 110.532,189.920 110.654,188.600 110.800 M207.000 110.815 C 208.320 110.979,210.300 111.106,211.400 111.098 L 213.400 111.082 211.000 110.785 C 209.680 110.621,207.700 110.494,206.600 110.502 L 204.600 110.518 207.000 110.815 M183.000 111.600 L 181.800 111.905 183.000 111.925 C 183.660 111.935,184.560 111.789,185.000 111.600 L 185.800 111.256 185.000 111.275 C 184.560 111.286,183.660 111.432,183.000 111.600 M214.800 111.600 C 215.350 111.776,216.340 111.917,217.000 111.913 L 218.200 111.905 217.000 111.600 C 216.340 111.432,215.350 111.291,214.800 111.287 L 213.800 111.280 214.800 111.600 M177.200 112.800 C 176.396 113.057,176.357 113.123,177.000 113.132 C 177.440 113.138,178.160 112.989,178.600 112.800 C 179.619 112.362,178.568 112.362,177.200 112.800 M221.200 112.770 C 221.530 113.000,222.144 113.191,222.565 113.194 C 223.450 113.201,227.380 114.305,228.699 114.917 C 229.194 115.147,229.695 115.238,229.812 115.121 C 230.163 114.770,225.205 113.170,222.000 112.600 C 220.963 112.416,220.756 112.460,221.200 112.770 M174.000 113.600 C 173.205 114.114,174.204 114.114,175.400 113.600 L 176.200 113.256 175.400 113.234 C 174.960 113.222,174.330 113.387,174.000 113.600 M170.800 114.600 C 169.522 115.330,169.796 115.334,171.800 114.612 C 172.680 114.295,173.040 114.034,172.600 114.032 C 172.160 114.030,171.350 114.286,170.800 114.600 M231.867 115.922 C 232.784 116.295,233.669 116.735,233.833 116.900 C 233.998 117.065,234.418 117.191,234.767 117.179 C 235.115 117.167,234.511 116.717,233.425 116.179 C 232.339 115.641,231.169 115.210,230.825 115.222 C 230.481 115.235,230.950 115.550,231.867 115.922 M165.600 116.633 C 165.042 116.943,164.865 117.185,165.200 117.181 C 165.530 117.178,166.149 116.910,166.576 116.587 C 167.539 115.859,166.945 115.887,165.600 116.633 M235.600 117.398 C 235.600 117.506,237.175 118.373,239.100 119.323 C 242.125 120.816,250.742 126.340,252.215 127.730 C 252.489 127.988,253.486 128.830,254.430 129.600 C 257.723 132.286,260.647 135.053,268.275 142.700 C 272.499 146.935,276.146 150.400,276.378 150.400 C 276.610 150.400,276.800 150.612,276.800 150.872 C 276.800 151.477,279.012 153.502,281.574 155.239 C 283.664 156.657,283.937 157.028,283.100 157.309 C 282.825 157.401,283.078 157.403,283.662 157.315 C 284.958 157.117,285.478 157.785,284.508 158.401 C 283.914 158.778,283.979 158.812,284.913 158.614 C 285.733 158.440,286.373 158.644,287.350 159.389 C 288.079 159.945,288.821 160.400,288.998 160.400 C 289.175 160.400,290.328 160.869,291.560 161.442 C 295.827 163.427,299.057 164.400,301.377 164.400 C 302.522 164.400,303.151 164.555,303.000 164.800 C 302.840 165.059,304.596 165.200,307.976 165.200 C 311.192 165.200,313.200 165.354,313.200 165.600 C 313.200 166.111,305.067 166.135,303.305 165.630 C 301.239 165.037,297.876 164.971,297.693 165.520 C 297.581 165.858,298.241 166.000,299.924 166.000 C 301.680 166.000,302.376 166.159,302.545 166.600 C 302.702 167.011,303.345 167.200,304.587 167.200 C 306.312 167.200,306.907 167.640,305.968 168.220 C 305.730 168.367,305.643 168.918,305.775 169.444 C 305.911 169.983,305.838 170.400,305.608 170.400 C 305.383 170.400,305.200 169.950,305.200 169.400 C 305.200 168.510,305.051 168.411,303.839 168.500 C 303.090 168.555,302.561 168.735,302.663 168.900 C 302.916 169.311,300.728 169.269,300.066 168.850 C 299.647 168.584,299.687 168.452,300.255 168.234 C 300.869 167.999,300.889 167.901,300.389 167.585 C 299.603 167.088,298.000 167.098,298.000 167.600 C 298.000 167.820,298.191 168.000,298.424 168.000 C 298.657 168.000,298.735 168.181,298.598 168.403 C 298.461 168.625,298.618 169.075,298.946 169.403 C 299.637 170.094,300.171 170.201,299.782 169.570 C 299.631 169.326,299.861 169.356,300.317 169.641 C 301.004 170.070,301.037 170.220,300.555 170.702 C 300.246 171.012,300.085 171.415,300.199 171.598 C 300.312 171.782,300.179 172.008,299.902 172.101 C 299.506 172.234,299.513 172.406,299.934 172.917 C 300.746 173.901,300.145 174.400,298.147 174.400 C 296.121 174.400,295.615 175.756,297.609 175.843 C 300.135 175.954,300.400 176.028,300.400 176.629 C 300.400 177.347,299.466 178.400,298.829 178.400 C 298.593 178.400,298.400 178.670,298.400 179.000 C 298.400 179.419,297.978 179.600,297.000 179.600 L 295.600 179.600 295.600 182.000 L 295.600 184.400 293.615 184.400 L 291.630 184.400 291.515 188.094 L 291.400 191.788 289.886 192.033 C 289.053 192.168,288.278 192.126,288.162 191.939 C 288.047 191.753,287.468 191.612,286.876 191.627 C 285.830 191.653,285.825 191.666,286.677 192.078 C 287.885 192.662,288.151 193.590,287.307 194.280 C 286.918 194.599,286.816 194.751,287.080 194.618 C 287.344 194.486,287.746 194.725,287.973 195.149 C 288.280 195.723,289.015 195.993,290.859 196.207 C 292.328 196.377,293.103 196.615,292.766 196.791 C 292.455 196.955,290.612 196.919,288.672 196.712 C 285.857 196.412,284.847 196.452,283.672 196.912 C 282.862 197.230,281.969 197.407,281.687 197.307 C 281.404 197.207,280.331 197.521,279.301 198.005 C 277.725 198.745,276.854 198.867,273.814 198.773 C 271.826 198.712,268.670 198.717,266.800 198.783 L 263.400 198.905 265.800 199.258 C 268.865 199.709,281.456 199.705,284.600 199.251 L 287.000 198.905 284.800 198.824 C 281.911 198.719,280.566 198.246,282.076 197.867 C 283.570 197.492,288.199 198.018,287.527 198.487 C 285.842 199.662,300.959 196.723,304.200 195.245 C 304.640 195.045,305.630 194.649,306.400 194.366 C 310.466 192.873,317.822 189.000,320.200 187.101 C 320.420 186.925,321.500 186.112,322.600 185.294 C 325.087 183.444,332.799 175.950,332.799 175.381 C 332.800 175.151,333.520 174.259,334.400 173.400 C 335.280 172.541,336.000 171.604,336.000 171.319 C 336.000 171.033,336.159 170.800,336.353 170.800 C 336.548 170.800,336.817 170.485,336.953 170.100 C 337.088 169.715,337.924 168.230,338.810 166.800 C 343.187 159.734,349.360 144.000,347.755 144.000 C 347.620 144.000,346.332 145.272,344.893 146.826 C 342.670 149.228,339.075 152.525,335.668 155.287 C 334.483 156.248,327.554 160.400,327.136 160.400 C 326.946 160.400,326.028 160.735,325.096 161.143 C 321.928 162.532,321.204 162.782,318.501 163.417 C 309.884 165.440,298.769 164.158,290.600 160.197 C 284.285 157.136,280.375 153.898,266.603 140.325 C 254.996 128.888,248.604 123.830,239.956 119.240 C 236.202 117.248,235.600 116.993,235.600 117.398 M161.266 118.593 C 160.753 118.876,160.123 119.325,159.866 119.591 C 159.471 120.002,162.287 118.609,162.767 118.157 C 163.122 117.823,162.154 118.104,161.266 118.593 M156.821 121.230 C 154.020 123.069,153.945 123.418,156.700 121.787 C 158.075 120.973,159.200 120.238,159.200 120.153 C 159.200 119.809,158.508 120.122,156.821 121.230 M152.167 124.629 L 150.600 126.058 152.300 124.762 C 153.853 123.578,154.232 123.200,153.867 123.200 C 153.793 123.200,153.028 123.843,152.167 124.629 M148.800 127.335 C 148.030 128.057,146.146 129.987,144.614 131.624 C 142.778 133.585,143.290 133.170,146.114 130.407 C 148.471 128.101,150.400 126.166,150.400 126.107 C 150.400 125.877,150.150 126.068,148.800 127.335 M140.400 136.400 C 139.703 137.280,139.283 137.996,139.466 137.991 C 139.813 137.983,142.199 134.800,141.860 134.800 C 141.754 134.800,141.097 135.520,140.400 136.400 M136.273 142.500 C 134.599 145.170,131.880 150.413,132.071 150.604 C 132.151 150.684,132.920 149.366,133.780 147.675 C 134.641 145.984,135.940 143.655,136.667 142.500 C 137.395 141.345,137.900 140.400,137.790 140.400 C 137.680 140.400,136.997 141.345,136.273 142.500 M163.500 145.896 C 164.875 145.974,167.125 145.974,168.500 145.896 C 169.875 145.818,168.750 145.754,166.000 145.754 C 163.250 145.754,162.125 145.818,163.500 145.896 M157.400 146.400 L 156.600 146.744 157.400 146.732 C 157.840 146.726,158.650 146.576,159.200 146.400 L 160.200 146.080 159.200 146.068 C 158.650 146.062,157.840 146.211,157.400 146.400 M172.800 146.400 C 173.350 146.576,174.250 146.720,174.800 146.720 L 175.800 146.720 174.800 146.400 C 174.250 146.224,173.350 146.080,172.800 146.080 L 171.800 146.080 172.800 146.400 M153.400 147.414 C 151.782 148.155,153.148 148.157,154.854 147.416 C 155.750 147.027,155.933 146.837,155.400 146.848 C 154.960 146.857,154.060 147.112,153.400 147.414 M177.800 147.392 C 178.900 147.687,179.854 147.876,179.920 147.811 C 180.141 147.594,177.493 146.800,176.640 146.827 C 176.178 146.842,176.700 147.096,177.800 147.392 M181.200 148.491 C 181.750 148.731,182.724 149.170,183.365 149.466 C 184.006 149.762,184.598 149.936,184.680 149.853 C 184.894 149.639,181.312 147.994,180.704 148.027 C 180.427 148.042,180.650 148.251,181.200 148.491 M148.400 149.400 C 147.850 149.714,147.580 149.972,147.800 149.972 C 148.020 149.972,148.650 149.714,149.200 149.400 C 149.750 149.086,150.020 148.828,149.800 148.828 C 149.580 148.828,148.950 149.086,148.400 149.400 M144.900 151.081 C 143.745 151.660,142.800 152.266,142.800 152.428 C 142.800 152.590,143.790 152.187,145.000 151.531 C 146.210 150.876,147.200 150.263,147.200 150.170 C 147.200 149.928,147.214 149.922,144.900 151.081 M186.433 150.946 C 187.240 151.651,188.552 152.073,188.051 151.465 C 187.749 151.099,187.224 150.800,186.884 150.800 C 186.545 150.800,186.342 150.866,186.433 150.946 M190.000 152.946 C 190.000 153.056,190.540 153.530,191.200 154.000 C 191.860 154.470,192.400 154.764,192.400 154.654 C 192.400 154.544,191.860 154.070,191.200 153.600 C 190.540 153.130,190.000 152.836,190.000 152.946 M138.000 155.882 L 137.000 156.916 138.300 156.031 C 139.576 155.162,139.896 154.776,139.300 154.824 C 139.135 154.837,138.550 155.314,138.000 155.882 M193.045 155.373 C 193.177 155.718,193.424 156.000,193.592 156.000 C 194.154 156.000,198.910 160.402,207.600 168.963 C 219.142 180.335,224.740 185.012,230.700 188.262 C 232.418 189.198,231.588 188.400,229.300 186.915 C 228.035 186.094,226.528 185.057,225.950 184.611 C 225.373 184.165,224.390 183.440,223.766 183.000 C 219.811 180.210,216.020 176.773,206.410 167.262 C 197.554 158.497,192.528 154.026,193.045 155.373 M135.100 158.229 C 134.275 159.011,133.600 159.766,133.600 159.906 C 133.600 160.047,134.320 159.459,135.200 158.600 C 136.664 157.171,136.978 156.794,136.700 156.803 C 136.645 156.805,135.925 157.447,135.100 158.229 M128.491 158.900 C 127.810 160.784,127.904 161.294,128.626 159.630 C 128.953 158.877,129.166 158.099,129.101 157.902 C 129.035 157.705,128.760 158.154,128.491 158.900 M130.200 163.080 C 129.100 164.332,127.885 165.681,127.500 166.078 C 127.115 166.475,126.800 166.933,126.800 167.094 C 126.800 167.414,131.596 162.227,132.120 161.341 C 132.713 160.338,132.209 160.794,130.200 163.080 M289.600 162.400 C 289.115 162.714,289.172 162.789,289.900 162.794 C 290.395 162.797,290.800 162.620,290.800 162.400 C 290.800 161.899,290.376 161.899,289.600 162.400 M292.403 163.500 C 292.409 164.050,294.541 164.801,295.980 164.759 L 297.400 164.718 296.063 164.402 C 295.328 164.228,294.527 163.887,294.283 163.643 C 293.784 163.144,292.398 163.039,292.403 163.500 M126.157 166.229 C 126.015 166.795,126.056 167.415,126.249 167.607 C 126.450 167.806,126.613 167.365,126.630 166.578 C 126.666 164.938,126.510 164.823,126.157 166.229 M320.200 165.600 C 320.064 165.820,319.333 166.000,318.576 166.000 C 317.819 166.000,317.200 165.820,317.200 165.600 C 317.200 165.380,317.931 165.200,318.824 165.200 C 319.804 165.200,320.349 165.358,320.200 165.600 M293.666 166.341 C 293.240 166.619,293.266 166.740,293.799 166.944 C 294.955 167.388,296.479 167.239,296.302 166.700 C 296.103 166.092,294.403 165.860,293.666 166.341 M290.400 167.635 C 290.400 167.836,290.790 168.000,291.267 168.000 C 291.743 168.000,292.008 167.875,291.855 167.722 C 291.423 167.289,290.400 167.229,290.400 167.635 M318.600 185.600 C 318.464 185.820,318.093 186.000,317.776 186.000 C 317.459 186.000,317.200 185.820,317.200 185.600 C 317.200 185.380,317.571 185.200,318.024 185.200 C 318.477 185.200,318.736 185.380,318.600 185.600 M232.000 188.964 C 232.000 189.255,239.291 192.842,239.486 192.647 C 239.676 192.457,238.828 191.967,234.800 189.935 C 232.661 188.856,232.000 188.627,232.000 188.964 M295.961 192.153 C 296.315 192.580,296.281 192.760,295.810 192.941 C 294.979 193.260,294.000 192.836,294.000 192.157 C 294.000 191.438,295.365 191.435,295.961 192.153 M240.220 193.135 C 241.974 194.681,257.928 198.852,261.731 198.759 L 263.400 198.718 262.000 198.381 C 261.230 198.196,259.381 197.921,257.891 197.770 C 256.401 197.618,255.086 197.339,254.968 197.147 C 254.849 196.956,254.212 196.800,253.552 196.800 C 252.324 196.800,248.754 195.838,247.505 195.171 C 247.123 194.967,246.476 194.800,246.067 194.800 C 245.389 194.800,243.692 194.137,241.905 193.174 C 241.035 192.705,239.697 192.674,240.220 193.135 M292.400 193.586 C 292.400 193.927,290.847 195.002,290.769 194.714 C 290.434 193.462,290.549 193.200,291.435 193.200 C 291.966 193.200,292.400 193.374,292.400 193.586 M300.500 193.482 C 300.005 193.578,299.195 193.578,298.700 193.482 C 298.205 193.387,298.610 193.309,299.600 193.309 C 300.590 193.309,300.995 193.387,300.500 193.482 M306.700 193.476 C 306.315 193.576,305.685 193.576,305.300 193.476 C 304.915 193.375,305.230 193.293,306.000 193.293 C 306.770 193.293,307.085 193.375,306.700 193.476 M281.000 195.600 C 282.171 196.103,284.379 196.103,283.600 195.600 C 283.270 195.387,282.370 195.222,281.600 195.234 C 280.456 195.252,280.346 195.319,281.000 195.600 M300.700 195.476 C 300.315 195.576,299.685 195.576,299.300 195.476 C 298.915 195.375,299.230 195.293,300.000 195.293 C 300.770 195.293,301.085 195.375,300.700 195.476 M297.600 196.400 C 297.600 196.620,297.240 196.800,296.800 196.800 C 296.360 196.800,296.000 196.620,296.000 196.400 C 296.000 196.180,296.360 196.000,296.800 196.000 C 297.240 196.000,297.600 196.180,297.600 196.400 M123.315 200.296 C 124.588 200.376,126.568 200.375,127.715 200.294 C 128.862 200.214,127.820 200.149,125.400 200.150 C 122.980 200.151,122.042 200.216,123.315 200.296 M116.700 200.682 C 117.195 200.778,118.005 200.778,118.500 200.682 C 118.995 200.587,118.590 200.509,117.600 200.509 C 116.610 200.509,116.205 200.587,116.700 200.682 M132.600 200.796 C 134.685 201.144,138.256 201.312,137.967 201.048 C 137.875 200.965,136.180 200.799,134.200 200.680 C 131.548 200.520,131.127 200.551,132.600 200.796 M112.500 201.087 C 113.105 201.178,114.095 201.178,114.700 201.087 C 115.305 200.995,114.810 200.920,113.600 200.920 C 112.390 200.920,111.895 200.995,112.500 201.087 M108.000 201.600 L 107.000 201.920 108.000 201.932 C 108.550 201.938,109.360 201.789,109.800 201.600 L 110.600 201.256 109.800 201.268 C 109.360 201.274,108.550 201.424,108.000 201.600 M140.200 201.600 C 140.640 201.789,141.360 201.944,141.800 201.944 L 142.600 201.944 141.800 201.600 C 141.360 201.411,140.640 201.256,140.200 201.256 L 139.400 201.256 140.200 201.600 M102.000 202.800 C 101.196 203.057,101.157 203.123,101.800 203.132 C 102.240 203.138,102.960 202.989,103.400 202.800 C 104.419 202.362,103.368 202.362,102.000 202.800 M146.204 202.806 C 146.338 203.023,147.007 203.200,147.690 203.200 C 149.201 203.200,149.049 203.000,147.280 202.663 C 146.455 202.506,146.052 202.560,146.204 202.806 M99.000 203.600 C 98.496 203.817,98.422 203.944,98.800 203.944 C 99.130 203.944,99.760 203.789,100.200 203.600 C 100.704 203.383,100.778 203.256,100.400 203.256 C 100.070 203.256,99.440 203.411,99.000 203.600 M149.600 203.576 C 149.930 203.769,150.920 204.036,151.800 204.169 L 153.400 204.410 151.600 203.811 C 149.601 203.146,148.681 203.037,149.600 203.576 M95.600 204.633 C 94.984 204.975,94.838 205.190,95.220 205.194 C 95.561 205.197,96.011 205.037,96.220 204.839 C 96.429 204.640,96.960 204.391,97.400 204.285 L 98.200 204.093 97.400 204.086 C 96.960 204.082,96.150 204.328,95.600 204.633 M90.624 206.613 C 89.625 207.368,89.995 207.363,91.454 206.602 C 92.084 206.274,92.330 206.010,92.000 206.015 C 91.670 206.021,91.051 206.290,90.624 206.613 M160.800 207.372 C 160.800 207.471,162.915 208.646,165.500 209.983 C 173.815 214.284,180.038 219.354,193.816 233.052 C 202.956 242.139,204.444 243.506,208.771 246.800 C 211.505 248.881,217.225 251.865,219.260 252.272 C 219.887 252.397,220.400 252.617,220.400 252.759 C 220.400 253.892,235.712 255.724,237.919 254.856 C 238.514 254.622,240.844 254.379,243.097 254.315 C 245.351 254.252,247.196 254.110,247.197 254.000 C 247.199 253.890,248.190 253.814,249.400 253.832 C 250.906 253.853,251.600 253.706,251.600 253.365 C 251.600 252.643,250.766 252.465,249.470 252.911 C 248.687 253.180,248.201 253.161,247.890 252.850 C 247.557 252.517,247.816 252.400,248.887 252.400 C 249.682 252.400,250.438 252.175,250.567 251.900 C 250.753 251.500,250.847 251.500,251.033 251.900 C 251.352 252.582,252.800 252.535,252.800 251.843 C 252.800 251.012,253.820 250.778,254.661 251.415 C 255.068 251.723,255.723 251.980,256.118 251.987 C 256.512 251.994,256.806 252.225,256.770 252.500 C 256.623 253.633,256.825 254.432,257.200 254.200 C 257.778 253.843,257.691 254.884,257.006 256.524 C 256.365 258.057,255.786 258.624,255.436 258.058 C 255.315 257.863,254.493 257.787,253.608 257.889 C 252.624 258.003,252.000 257.910,252.000 257.650 C 252.000 257.037,250.878 257.558,249.735 258.701 C 248.789 259.647,248.729 259.657,248.204 258.943 C 247.675 258.224,247.649 258.226,247.391 259.000 C 247.245 259.440,246.945 260.284,246.724 260.876 C 246.503 261.468,246.441 262.143,246.585 262.376 C 246.817 262.751,246.002 262.999,245.070 262.837 C 244.889 262.806,244.840 262.941,244.961 263.137 C 245.082 263.333,244.838 263.804,244.418 264.184 C 243.998 264.564,243.742 265.105,243.850 265.386 C 243.958 265.667,243.788 265.996,243.473 266.116 C 243.159 266.237,242.782 266.972,242.636 267.750 C 242.441 268.791,242.211 269.102,241.766 268.932 C 241.078 268.668,240.032 269.842,240.013 270.900 C 240.002 271.503,239.375 271.748,238.000 271.686 C 235.899 271.590,237.363 273.309,240.109 274.162 C 240.772 274.368,240.765 274.441,240.009 275.291 C 238.151 277.378,238.158 277.363,238.658 278.365 C 239.470 279.994,238.031 281.542,237.007 280.142 C 236.702 279.725,236.254 279.571,235.825 279.735 C 234.968 280.064,235.238 281.044,236.141 280.882 C 236.504 280.818,236.800 280.976,236.800 281.234 C 236.800 281.797,233.727 281.403,232.925 280.737 C 232.545 280.422,232.344 280.480,232.162 280.955 C 232.026 281.310,231.484 281.600,230.957 281.600 C 229.803 281.600,229.708 282.216,230.774 282.786 C 231.807 283.339,232.000 283.310,232.000 282.600 C 232.000 282.200,232.400 282.000,233.200 282.000 C 233.860 282.000,234.400 282.077,234.400 282.171 C 234.400 282.527,231.838 283.600,230.988 283.600 C 230.498 283.600,229.874 283.870,229.600 284.200 C 229.326 284.530,228.710 284.800,228.231 284.800 C 227.752 284.800,227.189 284.966,226.980 285.169 C 226.402 285.730,223.600 286.160,223.600 285.687 C 223.600 285.215,224.550 284.800,225.633 284.800 C 226.055 284.800,226.400 284.640,226.400 284.445 C 226.400 284.249,227.075 283.956,227.900 283.793 L 229.400 283.498 228.200 283.092 C 227.540 282.869,226.494 282.332,225.876 281.899 C 224.867 281.192,224.704 281.176,224.276 281.739 C 223.990 282.116,223.004 282.423,221.800 282.511 C 220.315 282.618,220.598 282.674,222.900 282.728 C 226.424 282.810,227.721 283.994,224.300 284.006 C 222.195 284.014,220.931 284.671,222.300 285.047 C 224.056 285.528,222.714 286.800,220.450 286.800 C 219.788 286.800,219.136 286.980,219.000 287.200 C 218.864 287.420,217.728 287.606,216.476 287.613 C 215.112 287.620,213.889 287.861,213.424 288.213 C 212.451 288.949,213.730 289.035,216.494 288.421 C 217.432 288.212,219.640 287.740,221.400 287.371 C 235.809 284.349,249.000 276.340,258.003 265.148 C 261.175 261.204,264.000 257.096,264.000 256.426 C 264.000 256.228,264.161 256.007,264.357 255.933 C 264.809 255.765,270.000 245.084,270.000 244.324 C 270.000 244.014,270.155 243.589,270.344 243.380 C 270.966 242.694,273.613 234.200,273.568 233.034 C 273.549 232.511,273.455 232.406,273.317 232.754 C 273.052 233.422,269.104 237.667,265.800 240.836 C 260.877 245.559,256.238 248.532,249.000 251.603 C 239.399 255.678,225.159 255.026,215.344 250.063 C 208.939 246.825,205.524 244.001,192.800 231.423 C 182.705 221.443,177.821 217.204,172.106 213.457 C 168.516 211.103,160.800 206.951,160.800 207.372 M85.862 208.847 C 85.016 209.293,84.406 209.739,84.505 209.838 C 84.604 209.938,85.476 209.567,86.443 209.014 C 88.534 207.819,88.067 207.684,85.862 208.847 M82.500 210.796 C 81.785 211.232,81.200 211.675,81.200 211.781 C 81.200 211.886,81.830 211.601,82.600 211.147 C 83.370 210.693,84.000 210.249,84.000 210.160 C 84.000 209.905,83.874 209.958,82.500 210.796 M79.400 213.035 L 78.200 214.066 79.500 213.206 C 80.215 212.733,80.800 212.268,80.800 212.173 C 80.800 211.873,80.631 211.978,79.400 213.035 M73.769 217.500 C 71.632 219.425,69.060 221.990,68.055 223.200 C 66.962 224.516,67.749 223.856,70.014 221.557 C 72.096 219.443,74.787 216.878,75.993 215.857 C 77.199 214.836,78.067 214.000,77.921 214.000 C 77.775 214.000,75.907 215.575,73.769 217.500 M65.544 226.300 C 64.393 227.689,63.906 228.400,64.104 228.400 C 64.214 228.400,64.786 227.770,65.373 227.000 C 66.463 225.571,66.595 225.032,65.544 226.300 M58.986 236.500 L 58.352 237.800 59.167 236.800 C 59.952 235.837,60.208 235.200,59.810 235.200 C 59.706 235.200,59.335 235.785,58.986 236.500 M88.915 235.896 C 90.188 235.976,92.168 235.975,93.315 235.894 C 94.462 235.814,93.420 235.749,91.000 235.750 C 88.580 235.751,87.642 235.816,88.915 235.896 M82.600 236.410 C 82.066 236.647,82.398 236.686,83.600 236.527 C 84.590 236.396,85.475 236.224,85.567 236.144 C 85.914 235.843,83.364 236.072,82.600 236.410 M97.000 236.400 C 98.761 236.848,100.999 236.848,99.600 236.400 C 99.050 236.224,97.970 236.083,97.200 236.087 L 95.800 236.095 97.000 236.400 M78.600 237.386 C 77.022 238.108,77.379 238.120,79.600 237.421 C 80.590 237.109,81.040 236.850,80.600 236.845 C 80.160 236.840,79.260 237.083,78.600 237.386 M101.800 237.173 C 102.240 237.351,103.230 237.608,104.000 237.745 L 105.400 237.993 104.000 237.427 C 103.230 237.116,102.240 236.859,101.800 236.856 L 101.000 236.851 101.800 237.173 M73.424 239.413 C 72.425 240.168,72.795 240.163,74.254 239.402 C 74.884 239.074,75.130 238.810,74.800 238.815 C 74.470 238.821,73.851 239.090,73.424 239.413 M108.211 239.318 C 109.240 239.994,111.200 240.834,111.200 240.600 C 111.200 240.377,108.156 238.800,107.727 238.800 C 107.559 238.800,107.777 239.033,108.211 239.318 M270.800 240.176 C 270.800 240.713,270.620 241.264,270.400 241.400 C 270.167 241.544,270.000 241.137,270.000 240.424 C 270.000 239.751,270.180 239.200,270.400 239.200 C 270.620 239.200,270.800 239.639,270.800 240.176 M56.465 241.417 C 56.209 241.978,56.007 242.654,56.016 242.919 C 56.024 243.183,56.297 242.788,56.622 242.039 C 57.305 240.465,57.161 239.890,56.465 241.417 M68.100 242.217 C 66.945 242.974,66.000 243.690,66.000 243.809 C 66.000 243.985,70.197 241.470,70.767 240.952 C 71.476 240.306,69.807 241.098,68.100 242.217 M111.633 240.930 C 111.725 241.001,112.430 241.466,113.200 241.963 L 114.600 242.866 113.400 241.835 C 112.740 241.268,112.035 240.803,111.833 240.802 C 111.632 240.801,111.542 240.858,111.633 240.930 M268.000 241.586 C 268.000 242.423,266.636 243.393,266.007 243.004 C 265.615 242.762,267.097 240.800,267.672 240.800 C 267.852 240.800,268.000 241.154,268.000 241.586 M114.800 242.959 C 114.800 243.061,115.385 243.556,116.100 244.057 C 117.022 244.704,117.235 244.764,116.833 244.263 C 116.260 243.550,114.800 242.613,114.800 242.959 M263.854 245.479 C 263.735 245.598,263.360 245.417,263.020 245.077 C 262.462 244.519,262.470 244.445,263.101 244.318 C 263.767 244.184,264.311 245.022,263.854 245.479 M266.800 244.757 C 266.800 245.522,265.803 246.173,265.201 245.801 C 265.022 245.690,264.969 245.239,265.084 244.800 C 265.355 243.762,266.800 243.727,266.800 244.757 M62.400 246.454 L 60.600 248.085 62.294 246.813 C 63.768 245.707,64.714 244.774,64.324 244.812 C 64.256 244.819,63.390 245.558,62.400 246.454 M119.590 246.700 C 122.641 249.364,123.367 250.036,127.100 253.662 C 128.915 255.424,130.400 256.707,130.400 256.512 C 130.400 256.150,122.531 248.607,120.000 246.542 C 119.230 245.914,118.540 245.265,118.467 245.100 C 118.393 244.935,118.126 244.800,117.874 244.800 C 117.621 244.800,118.393 245.655,119.590 246.700 M54.465 246.217 C 54.209 246.778,54.007 247.454,54.016 247.719 C 54.024 247.983,54.297 247.588,54.622 246.839 C 55.305 245.265,55.161 244.690,54.465 246.217 M262.993 246.700 L 264.018 247.800 262.943 247.933 C 262.271 248.016,261.736 247.829,261.514 247.433 C 261.320 247.085,260.764 246.797,260.280 246.794 C 259.430 246.788,259.434 246.769,260.400 246.233 C 261.795 245.459,261.845 245.468,262.993 246.700 M267.600 247.643 C 267.600 247.839,267.432 248.000,267.227 248.000 C 267.021 248.000,266.778 248.495,266.687 249.100 C 266.569 249.879,266.502 249.707,266.460 248.513 C 266.412 247.163,266.520 246.871,267.000 247.055 C 267.330 247.182,267.600 247.446,267.600 247.643 M260.882 249.400 C 260.614 250.521,258.755 252.115,258.275 251.635 C 257.628 250.988,257.740 249.422,258.462 249.000 C 259.714 248.269,261.097 248.498,260.882 249.400 M256.400 250.400 C 256.400 250.620,256.130 250.800,255.800 250.800 C 255.470 250.800,255.200 250.620,255.200 250.400 C 255.200 250.180,255.470 250.000,255.800 250.000 C 256.130 250.000,256.400 250.180,256.400 250.400 M253.683 253.185 C 254.248 254.088,255.296 254.435,256.052 253.968 C 256.785 253.515,256.136 252.968,254.503 252.664 C 253.304 252.440,253.243 252.479,253.683 253.185 M265.300 252.665 C 265.025 252.776,264.800 253.122,264.800 253.433 C 264.800 253.745,264.620 254.000,264.400 254.000 C 264.180 254.000,264.000 253.745,264.000 253.433 C 264.000 252.879,264.600 252.463,265.400 252.463 C 265.620 252.463,265.575 252.554,265.300 252.665 M54.026 254.507 C 52.887 255.911,52.842 256.029,53.763 255.200 C 54.720 254.338,55.856 252.786,55.514 252.807 C 55.451 252.811,54.782 253.576,54.026 254.507 M218.400 253.600 C 218.400 253.820,218.659 254.000,218.976 254.000 C 219.293 254.000,219.664 253.820,219.800 253.600 C 219.936 253.380,219.677 253.200,219.224 253.200 C 218.771 253.200,218.400 253.380,218.400 253.600 M252.000 254.357 C 252.000 254.554,252.270 254.818,252.600 254.945 C 252.930 255.071,253.200 255.451,253.200 255.787 C 253.200 256.174,253.569 256.400,254.200 256.400 C 255.571 256.400,255.516 255.150,254.117 254.500 C 252.853 253.913,252.000 253.855,252.000 254.357 M51.646 254.667 C 51.621 254.924,51.484 255.464,51.341 255.867 C 51.140 256.436,51.194 256.497,51.579 256.142 C 51.852 255.891,51.989 255.351,51.884 254.942 C 51.779 254.534,51.672 254.410,51.646 254.667 M246.500 255.300 C 246.604 255.818,247.204 256.383,247.663 256.394 C 247.807 256.397,247.831 256.040,247.716 255.600 C 247.492 254.745,246.332 254.459,246.500 255.300 M248.898 255.700 C 249.151 256.469,250.800 256.580,250.800 255.828 C 250.800 255.419,250.439 255.200,249.767 255.200 C 249.119 255.200,248.795 255.387,248.898 255.700 M241.646 256.957 C 241.121 257.248,240.851 257.579,241.046 257.692 C 241.241 257.805,241.746 257.561,242.170 257.149 C 243.070 256.273,242.955 256.231,241.646 256.957 M130.800 257.115 C 130.800 257.284,131.160 257.730,131.600 258.107 C 132.040 258.484,132.400 258.654,132.400 258.485 C 132.400 258.316,132.040 257.870,131.600 257.493 C 131.160 257.116,130.800 256.946,130.800 257.115 M261.221 258.255 C 261.442 258.836,261.527 259.406,261.411 259.522 C 261.295 259.638,261.200 259.523,261.200 259.267 C 261.200 259.010,260.930 258.800,260.600 258.800 C 260.270 258.800,260.000 258.725,260.000 258.633 C 260.000 258.541,259.891 258.181,259.757 257.833 C 259.597 257.415,259.736 257.200,260.167 257.200 C 260.526 257.200,261.000 257.675,261.221 258.255 M132.800 259.010 C 132.800 259.980,146.069 271.812,150.800 275.060 C 156.246 278.800,163.831 283.102,164.246 282.687 C 164.464 282.469,161.742 280.800,161.169 280.800 C 160.957 280.800,160.071 280.350,159.200 279.800 C 158.329 279.250,157.520 278.800,157.404 278.800 C 157.287 278.800,156.295 278.170,155.200 277.400 C 154.105 276.630,153.109 276.000,152.987 276.000 C 152.737 276.000,148.308 272.797,148.000 272.394 C 147.890 272.250,147.504 271.967,147.143 271.766 C 146.531 271.425,144.137 269.455,141.662 267.257 C 141.078 266.738,138.845 264.602,136.700 262.509 C 134.555 260.417,132.800 258.842,132.800 259.010 M259.281 260.403 C 259.656 261.061,259.791 261.600,259.581 261.600 C 259.372 261.600,259.200 261.420,259.200 261.200 C 259.200 260.623,258.100 260.707,257.888 261.300 C 257.790 261.575,257.588 261.688,257.440 261.552 C 257.150 261.285,257.971 259.198,258.364 259.203 C 258.494 259.204,258.907 259.744,259.281 260.403 M250.308 264.325 C 250.397 264.590,250.099 264.800,249.633 264.800 C 248.802 264.800,248.553 264.380,249.075 263.858 C 249.446 263.488,250.113 263.740,250.308 264.325 M253.600 264.400 C 253.600 264.860,253.333 265.200,252.973 265.200 C 252.528 265.200,252.420 265.432,252.600 266.000 C 252.920 267.008,251.027 267.170,250.643 266.167 C 250.289 265.246,250.318 265.200,251.237 265.200 C 251.738 265.200,252.159 264.879,252.284 264.400 C 252.399 263.960,252.742 263.600,253.047 263.600 C 253.351 263.600,253.600 263.960,253.600 264.400 M248.229 265.200 C 249.028 265.200,248.942 266.407,248.100 267.027 C 247.433 267.518,247.433 267.556,248.100 267.814 C 248.806 268.088,249.101 269.600,248.449 269.600 C 247.694 269.600,247.119 268.345,247.272 267.034 C 247.360 266.276,247.290 265.744,247.116 265.852 C 246.347 266.327,245.983 265.482,246.673 264.820 C 247.235 264.279,247.429 264.243,247.529 264.660 C 247.600 264.957,247.915 265.200,248.229 265.200 M250.760 267.758 C 251.411 268.450,251.526 268.798,251.177 269.014 C 250.898 269.186,250.540 269.035,250.327 268.656 C 250.125 268.295,249.699 268.000,249.380 268.000 C 249.061 268.000,248.800 267.730,248.800 267.400 C 248.800 266.503,249.743 266.675,250.760 267.758 M242.218 272.587 C 242.291 273.245,242.132 273.600,241.765 273.600 C 241.454 273.600,241.200 273.420,241.200 273.200 C 241.200 272.980,240.915 272.800,240.567 272.800 C 240.218 272.800,240.008 272.575,240.100 272.300 C 240.192 272.025,240.462 271.800,240.700 271.800 C 240.938 271.800,241.268 271.665,241.433 271.500 C 241.853 271.080,242.089 271.407,242.218 272.587 M248.800 271.600 C 248.800 271.820,249.070 272.000,249.400 272.000 C 249.730 272.000,250.000 272.180,250.000 272.400 C 250.000 272.620,249.730 272.800,249.400 272.800 C 249.070 272.800,248.800 273.089,248.800 273.442 C 248.800 273.953,248.603 273.895,247.838 273.158 C 246.960 272.313,246.934 272.189,247.538 271.729 C 248.346 271.114,248.800 271.068,248.800 271.600 M246.400 273.400 C 246.400 273.733,246.044 274.000,245.600 274.000 C 245.156 274.000,244.800 273.733,244.800 273.400 C 244.800 273.067,245.156 272.800,245.600 272.800 C 246.044 272.800,246.400 273.067,246.400 273.400 M233.100 274.300 C 231.795 274.596,232.358 275.859,233.700 275.647 C 233.865 275.621,234.000 275.816,234.000 276.080 C 234.000 276.427,234.139 276.413,234.500 276.030 C 234.900 275.606,234.900 275.463,234.498 275.316 C 234.221 275.215,234.089 274.979,234.204 274.793 C 234.485 274.340,233.959 274.105,233.100 274.300 M244.400 274.400 C 244.400 274.620,244.124 274.800,243.787 274.800 C 243.451 274.800,243.071 275.070,242.945 275.400 C 242.818 275.730,242.374 276.000,241.957 276.000 C 241.541 276.000,241.200 275.730,241.200 275.400 C 241.200 275.067,241.556 274.800,242.000 274.800 C 242.440 274.800,242.800 274.620,242.800 274.400 C 242.800 274.180,243.160 274.000,243.600 274.000 C 244.040 274.000,244.400 274.180,244.400 274.400 M245.400 276.000 C 245.002 276.440,244.492 276.800,244.268 276.800 C 243.780 276.800,245.241 275.258,245.762 275.224 C 245.961 275.211,245.798 275.560,245.400 276.000 M240.800 277.400 C 240.800 277.730,240.530 278.000,240.200 278.000 C 239.575 278.000,239.406 277.527,239.867 277.067 C 240.327 276.606,240.800 276.775,240.800 277.400 M228.200 280.400 C 228.064 280.620,228.334 280.800,228.800 280.800 C 229.266 280.800,229.536 280.620,229.400 280.400 C 229.264 280.180,228.994 280.000,228.800 280.000 C 228.606 280.000,228.336 280.180,228.200 280.400 M166.461 283.748 C 167.484 284.267,168.744 284.796,169.261 284.924 C 169.777 285.052,171.190 285.452,172.400 285.813 C 178.280 287.568,185.800 289.133,186.240 288.694 C 186.598 288.336,183.611 287.605,181.780 287.602 C 180.889 287.601,179.989 287.438,179.780 287.241 C 179.571 287.044,178.680 286.793,177.800 286.683 C 175.206 286.362,172.730 285.649,169.800 284.380 C 169.140 284.094,168.444 283.899,168.253 283.946 C 168.063 283.993,167.484 283.754,166.968 283.416 C 166.451 283.077,165.707 282.801,165.314 282.802 C 164.921 282.803,165.437 283.228,166.461 283.748 M217.937 285.867 C 217.455 286.380,217.191 286.800,217.350 286.800 C 217.902 286.800,220.000 285.578,220.000 285.256 C 220.000 284.602,218.789 284.961,217.937 285.867 M189.800 289.246 C 192.936 289.767,206.831 289.772,209.400 289.254 C 211.009 288.929,210.384 288.887,206.200 289.038 C 199.137 289.294,198.942 289.294,192.800 289.057 C 188.383 288.886,187.837 288.920,189.800 289.246 " stroke="none" fill="#66ccbd" fill-rule="evenodd"></path><path id="path4" d="M185.840 110.042 C 182.373 110.548,182.500 110.968,186.000 110.569 C 189.572 110.163,209.729 110.113,214.000 110.500 L 217.000 110.772 214.400 110.204 C 211.442 109.559,189.984 109.437,185.840 110.042 M179.600 111.200 C 179.270 111.413,178.526 111.591,177.946 111.594 C 177.366 111.597,176.286 111.877,175.546 112.216 L 174.200 112.833 175.400 112.645 C 177.774 112.274,182.520 111.214,182.724 111.009 C 183.105 110.628,180.211 110.805,179.600 111.200 M219.200 111.401 C 220.410 111.721,222.300 112.185,223.400 112.433 C 225.797 112.972,229.133 113.981,230.095 114.456 C 230.477 114.645,230.967 114.800,231.184 114.800 C 231.401 114.800,232.579 115.274,233.803 115.853 C 235.026 116.432,236.131 116.803,236.257 116.676 C 236.834 116.100,225.777 112.117,221.600 111.396 C 218.111 110.794,216.912 110.797,219.200 111.401 M172.200 113.200 C 172.064 113.420,171.558 113.606,171.076 113.614 C 169.780 113.635,167.850 114.766,169.076 114.786 C 169.558 114.794,170.064 114.620,170.200 114.400 C 170.336 114.180,170.752 113.992,171.124 113.982 C 172.313 113.950,174.377 112.872,173.324 112.832 C 172.842 112.815,172.336 112.980,172.200 113.200 M164.800 115.869 C 163.590 116.441,161.973 117.199,161.207 117.555 C 156.609 119.685,149.310 125.164,144.800 129.870 C 141.999 132.793,138.474 137.200,138.937 137.200 C 139.247 137.200,140.105 136.271,141.000 134.966 C 142.710 132.474,152.046 123.563,153.749 122.797 C 153.997 122.686,155.460 121.765,157.000 120.750 C 159.715 118.962,166.341 115.600,167.153 115.600 C 167.373 115.600,167.664 115.420,167.800 115.200 C 168.214 114.531,167.114 114.776,164.800 115.869 M236.833 116.957 C 236.925 117.043,238.260 117.788,239.800 118.612 C 241.340 119.437,242.960 120.316,243.400 120.566 C 245.095 121.531,251.029 125.483,251.600 126.027 C 251.930 126.342,253.190 127.353,254.400 128.274 C 257.122 130.345,259.326 132.410,269.200 142.140 C 276.618 149.449,281.381 153.834,283.372 155.186 C 289.136 159.100,293.423 161.266,297.000 162.072 C 305.147 163.908,310.319 164.310,314.800 163.455 C 317.278 162.982,317.071 162.960,310.400 162.979 C 303.678 162.999,299.264 162.445,296.200 161.195 C 295.760 161.015,294.178 160.416,292.684 159.862 C 286.775 157.673,281.754 153.692,268.800 140.927 C 264.510 136.699,260.550 132.857,260.000 132.389 C 259.450 131.921,258.370 130.961,257.600 130.256 C 256.830 129.551,255.480 128.451,254.600 127.810 C 253.720 127.170,252.820 126.455,252.600 126.223 C 251.831 125.410,249.250 123.600,248.860 123.600 C 248.644 123.600,248.407 123.450,248.333 123.267 C 248.023 122.490,238.151 116.800,237.114 116.800 C 236.868 116.800,236.742 116.870,236.833 116.957 M137.125 139.483 C 135.318 142.004,132.800 146.322,132.800 146.901 C 132.800 147.614,133.368 146.848,134.803 144.200 C 135.519 142.880,136.723 140.927,137.480 139.861 C 138.236 138.794,138.775 137.842,138.677 137.744 C 138.579 137.646,137.881 138.429,137.125 139.483 M348.193 141.442 C 342.998 147.423,334.123 155.600,332.826 155.600 C 332.605 155.600,331.113 156.469,329.512 157.531 C 327.910 158.593,325.790 159.782,324.800 160.172 C 323.810 160.563,322.687 161.044,322.305 161.241 C 321.923 161.438,321.203 161.608,320.705 161.618 C 319.457 161.643,317.092 162.724,318.200 162.763 C 319.446 162.807,322.222 161.898,326.399 160.078 C 328.359 159.224,334.572 155.539,334.733 155.134 C 334.807 154.950,335.107 154.800,335.400 154.800 C 335.693 154.800,335.993 154.665,336.067 154.500 C 336.140 154.335,337.531 153.030,339.157 151.600 C 340.784 150.170,343.548 147.380,345.299 145.400 C 349.174 141.018,349.793 140.575,349.408 142.457 C 349.005 144.433,347.961 148.025,347.390 149.400 C 347.116 150.060,346.495 151.770,346.010 153.200 C 342.224 164.358,330.357 181.542,324.073 184.965 C 323.703 185.167,323.310 185.448,323.200 185.590 C 321.051 188.366,307.605 195.056,300.200 197.034 C 290.164 199.715,271.020 201.036,262.824 199.614 C 261.601 199.402,258.890 198.937,256.800 198.581 C 253.047 197.942,246.553 196.312,245.000 195.619 C 244.560 195.423,243.300 194.943,242.200 194.552 C 237.384 192.843,224.766 185.712,222.800 183.588 C 222.690 183.470,222.077 182.971,221.437 182.479 C 218.442 180.178,214.725 176.743,206.640 168.803 C 196.795 159.133,197.414 159.722,194.186 156.952 C 188.269 151.874,180.060 147.849,174.600 147.347 L 173.000 147.200 174.800 147.794 C 175.790 148.121,177.007 148.391,177.505 148.394 C 178.003 148.397,178.723 148.558,179.105 148.751 C 180.786 149.601,182.874 150.400,183.414 150.400 C 183.736 150.400,184.000 150.580,184.000 150.800 C 184.000 151.020,184.207 151.200,184.460 151.200 C 186.499 151.200,193.707 156.957,202.590 165.681 C 214.365 177.246,215.328 178.164,216.995 179.409 C 217.872 180.064,219.477 181.455,220.560 182.500 C 221.644 183.545,222.752 184.400,223.022 184.400 C 223.293 184.400,223.603 184.631,223.711 184.914 C 223.820 185.196,224.742 185.856,225.760 186.379 C 226.778 186.903,227.811 187.572,228.055 187.866 C 228.298 188.160,228.746 188.400,229.049 188.400 C 229.352 188.400,229.600 188.555,229.600 188.744 C 229.600 189.055,238.175 193.473,241.600 194.928 C 244.140 196.006,251.553 198.400,252.352 198.400 C 252.783 198.400,254.185 198.652,255.468 198.959 C 261.775 200.470,283.970 200.901,291.200 199.652 C 298.155 198.451,304.549 196.621,309.200 194.501 C 310.410 193.949,312.525 192.988,313.900 192.366 C 315.275 191.743,316.400 191.046,316.400 190.817 C 316.400 190.588,316.715 190.395,317.100 190.389 C 320.707 190.332,335.009 176.222,339.185 168.600 C 339.908 167.280,340.928 165.627,341.450 164.927 C 341.973 164.226,342.400 163.465,342.400 163.236 C 342.400 162.804,343.800 159.628,345.455 156.303 C 345.975 155.260,346.413 154.000,346.429 153.503 C 346.445 153.006,346.803 152.060,347.225 151.400 C 348.205 149.865,348.148 150.031,349.153 145.800 C 350.486 140.188,350.243 139.082,348.193 141.442 M160.352 146.581 C 160.253 146.681,159.188 146.940,157.986 147.158 C 147.548 149.050,139.697 154.089,128.691 165.961 C 125.123 169.809,124.953 169.833,125.823 166.358 C 126.964 161.801,126.980 161.668,126.297 162.600 C 125.279 163.987,124.487 169.049,125.180 169.735 C 125.539 170.090,125.986 169.821,127.064 168.600 C 131.162 163.958,136.756 158.361,138.463 157.196 C 139.529 156.469,140.400 155.743,140.400 155.583 C 140.400 155.422,141.046 154.985,141.836 154.610 C 142.625 154.235,143.583 153.617,143.963 153.237 C 144.344 152.856,145.452 152.226,146.426 151.836 C 147.401 151.446,148.288 151.008,148.399 150.861 C 148.714 150.443,153.477 148.802,157.000 147.897 C 159.557 147.241,161.487 147.072,166.600 147.060 C 170.120 147.051,172.460 146.920,171.800 146.769 C 170.453 146.461,160.634 146.300,160.352 146.581 M132.124 148.090 C 131.680 148.671,130.000 152.265,130.000 152.635 C 130.000 152.769,129.706 153.498,129.348 154.254 C 128.989 155.010,128.805 155.738,128.938 155.872 C 129.072 156.005,129.302 155.774,129.450 155.357 C 129.792 154.390,131.079 151.452,132.045 149.431 C 132.802 147.846,132.843 147.151,132.124 148.090 M128.048 157.326 C 127.801 157.945,127.600 158.700,127.600 159.002 C 127.600 159.305,127.420 159.664,127.200 159.800 C 126.980 159.936,126.812 160.442,126.826 160.924 C 126.846 161.623,126.978 161.517,127.480 160.400 C 127.826 159.630,128.286 158.613,128.501 158.139 C 128.717 157.666,128.804 157.036,128.694 156.739 C 128.570 156.401,128.328 156.620,128.048 157.326 M110.400 200.216 L 108.200 200.778 111.400 200.494 C 116.567 200.035,135.872 200.181,139.400 200.706 C 141.160 200.967,143.950 201.465,145.600 201.812 C 150.489 202.839,151.117 202.917,150.289 202.396 C 149.899 202.150,148.729 201.794,147.689 201.604 C 146.650 201.415,144.360 200.955,142.600 200.583 C 138.152 199.642,113.737 199.364,110.400 200.216 M104.200 201.200 C 104.064 201.420,103.444 201.600,102.822 201.600 C 102.201 201.600,101.086 201.863,100.346 202.184 L 99.000 202.769 100.276 202.784 C 100.978 202.793,101.651 202.641,101.771 202.447 C 101.891 202.252,103.011 201.966,104.260 201.810 C 107.571 201.396,108.701 200.857,106.324 200.825 C 105.292 200.811,104.336 200.980,104.200 201.200 M96.800 203.124 C 96.800 203.303,95.855 203.676,94.700 203.955 C 92.441 204.499,90.139 205.494,89.278 206.300 C 88.640 206.896,89.296 206.972,90.305 206.419 C 91.360 205.841,93.528 204.958,96.300 203.977 C 99.040 203.008,99.305 202.800,97.800 202.800 C 97.250 202.800,96.800 202.946,96.800 203.124 M152.200 203.414 C 152.860 203.717,153.704 203.972,154.076 203.982 C 154.448 203.992,154.864 204.180,155.000 204.400 C 155.136 204.620,155.642 204.794,156.124 204.786 C 157.350 204.766,155.420 203.635,154.124 203.614 C 153.642 203.606,153.136 203.420,153.000 203.200 C 152.864 202.980,152.358 202.815,151.876 202.832 C 151.114 202.861,151.157 202.937,152.200 203.414 M157.776 205.413 C 158.204 205.736,158.843 206.000,159.196 206.000 C 159.550 206.000,160.040 206.200,160.285 206.445 C 160.530 206.690,160.943 206.819,161.202 206.733 C 161.462 206.646,161.163 206.335,160.537 206.041 C 159.912 205.747,159.087 205.348,158.705 205.153 C 157.581 204.582,156.921 204.766,157.776 205.413 M86.600 207.318 C 86.160 207.577,84.679 208.466,83.310 209.294 C 81.940 210.122,80.635 210.800,80.410 210.800 C 80.184 210.800,80.000 210.980,80.000 211.200 C 80.000 211.420,79.803 211.600,79.563 211.600 C 78.229 211.600,68.905 220.304,65.400 224.822 C 64.300 226.240,63.265 227.460,63.100 227.533 C 62.935 227.607,62.800 227.922,62.800 228.233 C 62.800 228.545,62.652 228.800,62.471 228.800 C 62.290 228.800,61.721 229.655,61.206 230.700 C 60.691 231.745,59.786 233.320,59.194 234.200 C 57.821 236.240,56.632 238.765,56.911 239.045 C 57.030 239.164,57.568 238.392,58.105 237.330 C 60.048 233.497,63.680 227.626,64.935 226.293 C 65.191 226.021,66.114 224.899,66.987 223.799 C 70.128 219.841,80.431 210.800,81.802 210.800 C 81.902 210.800,82.969 210.170,84.173 209.400 C 85.377 208.630,86.516 208.000,86.704 208.000 C 86.893 208.000,87.396 207.736,87.824 207.413 C 88.794 206.678,87.816 206.602,86.600 207.318 M162.220 207.161 C 162.429 207.360,163.950 208.225,165.600 209.083 C 167.250 209.942,169.680 211.348,171.000 212.207 C 172.320 213.067,173.776 213.977,174.235 214.228 C 175.127 214.716,178.286 217.223,182.200 220.548 C 183.520 221.669,188.650 226.565,193.600 231.427 C 207.188 244.774,209.230 246.440,216.087 249.776 C 220.583 251.963,228.491 254.198,224.654 252.198 C 224.024 251.869,223.088 251.600,222.573 251.600 C 221.681 251.600,220.986 251.372,218.140 250.144 C 217.446 249.845,216.681 249.600,216.440 249.600 C 216.198 249.600,216.000 249.420,216.000 249.200 C 216.000 248.980,215.762 248.800,215.472 248.800 C 214.564 248.800,207.233 243.748,204.153 241.000 C 203.906 240.780,199.093 236.055,193.458 230.500 C 187.822 224.945,183.063 220.400,182.882 220.400 C 182.702 220.400,181.405 219.320,180.000 218.000 C 178.595 216.680,177.293 215.600,177.106 215.600 C 176.919 215.600,176.369 215.228,175.883 214.774 C 175.397 214.319,174.415 213.669,173.700 213.328 C 172.985 212.987,172.400 212.563,172.400 212.384 C 172.400 212.034,172.223 211.932,166.250 208.843 C 162.333 206.817,161.487 206.464,162.220 207.161 M272.925 231.668 C 264.914 241.047,257.998 246.515,249.600 250.109 C 248.830 250.438,247.570 250.903,246.800 251.142 C 242.361 252.519,241.820 252.738,242.772 252.768 C 244.790 252.834,252.968 249.560,256.979 247.081 C 260.867 244.678,265.973 240.191,270.400 235.287 C 274.917 230.283,275.353 230.247,273.833 235.000 C 273.551 235.880,273.008 237.590,272.626 238.800 C 271.893 241.123,271.669 241.716,270.641 244.060 C 270.288 244.864,270.000 245.721,270.000 245.966 C 270.000 246.211,269.829 246.723,269.620 247.105 C 269.412 247.487,268.535 249.240,267.673 251.000 C 262.213 262.145,255.434 270.452,246.702 276.697 C 242.175 279.936,236.313 283.195,232.600 284.539 C 231.500 284.937,230.240 285.421,229.800 285.614 C 226.813 286.928,220.235 288.375,211.723 289.589 C 204.490 290.622,188.613 290.007,180.000 288.362 C 176.282 287.652,167.447 284.937,165.200 283.814 C 164.650 283.539,163.030 282.752,161.600 282.064 C 157.319 280.006,149.821 275.364,148.267 273.810 C 147.964 273.507,147.166 272.924,146.493 272.515 C 144.937 271.569,141.649 268.518,132.400 259.439 C 122.924 250.137,118.600 246.156,116.600 244.892 C 115.720 244.335,114.910 243.754,114.800 243.600 C 111.880 239.506,92.498 234.985,85.400 236.743 C 84.163 237.049,84.753 237.091,88.000 236.927 C 90.962 236.778,93.438 236.917,96.400 237.401 C 98.710 237.778,101.230 238.178,102.000 238.290 C 102.770 238.403,103.584 238.642,103.810 238.822 C 104.035 239.001,105.115 239.440,106.210 239.797 C 108.669 240.598,111.830 242.227,113.331 243.466 C 113.953 243.980,114.718 244.400,115.031 244.400 C 115.344 244.400,115.600 244.562,115.600 244.760 C 115.600 244.959,116.185 245.469,116.900 245.895 C 118.639 246.930,121.380 249.456,131.379 259.242 C 136.010 263.775,140.610 268.185,141.600 269.042 C 142.590 269.899,143.580 270.790,143.800 271.023 C 144.020 271.255,144.920 271.966,145.800 272.602 C 146.680 273.237,147.490 273.858,147.600 273.981 C 148.143 274.587,150.795 276.400,151.140 276.400 C 151.356 276.400,151.593 276.558,151.667 276.751 C 151.862 277.265,159.926 282.147,161.800 282.886 C 162.680 283.233,164.390 283.963,165.600 284.510 C 166.810 285.056,168.430 285.706,169.200 285.954 C 169.970 286.203,171.770 286.791,173.200 287.262 C 175.959 288.171,176.350 288.256,183.727 289.563 C 189.826 290.643,208.972 290.783,215.200 289.792 C 220.203 288.997,223.217 288.393,224.200 287.989 C 224.640 287.809,226.170 287.299,227.600 286.858 C 243.459 281.956,254.573 273.403,264.230 258.667 C 265.529 256.686,268.400 251.250,268.400 250.773 C 268.400 250.536,268.633 250.110,268.919 249.824 C 269.204 249.539,269.681 248.517,269.978 247.553 C 270.276 246.589,270.942 244.866,271.460 243.725 C 271.977 242.583,272.400 241.456,272.400 241.219 C 272.400 240.983,272.558 240.477,272.751 240.095 C 273.731 238.157,274.400 236.278,274.400 235.466 C 274.400 234.968,274.592 234.368,274.827 234.133 C 275.382 233.578,275.143 230.709,274.525 230.506 C 274.264 230.420,273.544 230.943,272.925 231.668 M79.400 237.974 C 70.158 240.621,62.482 246.147,52.239 257.524 C 50.663 259.275,49.453 259.369,50.363 257.669 C 51.015 256.450,50.863 255.640,50.200 256.800 C 49.509 258.009,49.436 259.452,50.048 259.830 C 50.310 259.992,51.679 258.803,53.348 256.963 C 59.530 250.150,66.142 244.400,67.794 244.400 C 68.127 244.400,68.400 244.232,68.400 244.027 C 68.400 243.822,68.728 243.550,69.129 243.422 C 69.531 243.295,70.216 242.878,70.653 242.495 C 71.578 241.686,73.898 240.400,74.434 240.400 C 74.638 240.400,75.737 239.950,76.877 239.400 C 78.017 238.850,79.435 238.400,80.029 238.400 C 80.623 238.400,81.624 238.131,82.254 237.802 C 83.810 236.991,82.571 237.066,79.400 237.974 M55.970 240.648 C 55.717 241.282,55.080 242.654,54.555 243.697 C 54.030 244.740,53.600 245.945,53.600 246.373 C 53.600 246.802,53.420 247.264,53.200 247.400 C 52.980 247.536,52.812 247.952,52.826 248.324 C 52.841 248.729,53.067 248.520,53.391 247.800 C 55.595 242.902,56.000 241.919,56.000 241.469 C 56.000 241.189,56.213 240.747,56.473 240.487 C 56.734 240.226,56.830 239.897,56.688 239.755 C 56.546 239.613,56.223 240.015,55.970 240.648 M52.073 249.687 C 51.813 249.947,51.600 250.586,51.600 251.106 C 51.600 251.627,51.409 252.410,51.175 252.847 C 50.941 253.284,50.819 253.947,50.904 254.321 C 50.992 254.710,51.278 254.231,51.573 253.200 C 51.856 252.210,52.279 250.995,52.511 250.501 C 53.003 249.455,52.759 249.001,52.073 249.687 M227.600 253.324 C 229.422 253.790,239.062 253.791,240.556 253.326 C 241.329 253.085,239.143 252.966,233.956 252.966 C 228.617 252.966,226.636 253.078,227.600 253.324 " stroke="none" fill="#cdf3f6" fill-rule="evenodd"></path></g></svg>